<svg width="526" height="264" viewBox="0 0 526 264" fill="none" xmlns="http://www.w3.org/2000/svg">
<rect width="526" height="264" rx="16" fill="#0D2238"/>
<path d="M33.248 34.288C33.248 34.8853 33.104 35.4453 32.816 35.968C32.5387 36.4907 32.096 36.912 31.488 37.232C30.8907 37.552 30.1333 37.712 29.216 37.712H27.344V42H25.104V30.832H29.216C30.08 30.832 30.816 30.9813 31.424 31.28C32.032 31.5787 32.4853 31.9893 32.784 32.512C33.0933 33.0347 33.248 33.6267 33.248 34.288ZM29.12 35.904C29.7387 35.904 30.1973 35.7653 30.496 35.488C30.7947 35.2 30.944 34.8 30.944 34.288C30.944 33.2 30.336 32.656 29.12 32.656H27.344V35.904H29.12ZM34.2624 37.536C34.2624 36.64 34.4384 35.8453 34.7904 35.152C35.153 34.4587 35.6384 33.9253 36.2464 33.552C36.865 33.1787 37.553 32.992 38.3104 32.992C38.9717 32.992 39.5477 33.1253 40.0384 33.392C40.5397 33.6587 40.9397 33.9947 41.2384 34.4V33.136H43.4944V42H41.2384V40.704C40.9504 41.12 40.5504 41.4667 40.0384 41.744C39.537 42.0107 38.9557 42.144 38.2944 42.144C37.5477 42.144 36.865 41.952 36.2464 41.568C35.6384 41.184 35.153 40.6453 34.7904 39.952C34.4384 39.248 34.2624 38.4427 34.2624 37.536ZM41.2384 37.568C41.2384 37.024 41.1317 36.56 40.9184 36.176C40.705 35.7813 40.417 35.4827 40.0544 35.28C39.6917 35.0667 39.3024 34.96 38.8864 34.96C38.4704 34.96 38.0864 35.0613 37.7344 35.264C37.3824 35.4667 37.0944 35.7653 36.8704 36.16C36.657 36.544 36.5504 37.0027 36.5504 37.536C36.5504 38.0693 36.657 38.5387 36.8704 38.944C37.0944 39.3387 37.3824 39.6427 37.7344 39.856C38.097 40.0693 38.481 40.176 38.8864 40.176C39.3024 40.176 39.6917 40.0747 40.0544 39.872C40.417 39.6587 40.705 39.36 40.9184 38.976C41.1317 38.5813 41.2384 38.112 41.2384 37.568ZM47.9221 34.512C48.2101 34.0427 48.5835 33.6747 49.0421 33.408C49.5115 33.1413 50.0448 33.008 50.6421 33.008V35.36H50.0501C49.3461 35.36 48.8128 35.5253 48.4501 35.856C48.0981 36.1867 47.9221 36.7627 47.9221 37.584V42H45.6821V33.136H47.9221V34.512ZM54.7589 34.976V39.264C54.7589 39.5627 54.8282 39.7813 54.9669 39.92C55.1162 40.048 55.3615 40.112 55.7029 40.112H56.7429V42H55.3349C53.4469 42 52.5029 41.0827 52.5029 39.248V34.976H51.4469V33.136H52.5029V30.944H54.7589V33.136H56.7429V34.976H54.7589ZM66.594 37.376C66.594 37.696 66.5727 37.984 66.53 38.24H60.05C60.1033 38.88 60.3273 39.3813 60.722 39.744C61.1167 40.1067 61.602 40.288 62.178 40.288C63.01 40.288 63.602 39.9307 63.954 39.216H66.37C66.114 40.0693 65.6233 40.7733 64.898 41.328C64.1727 41.872 63.282 42.144 62.226 42.144C61.3727 42.144 60.6047 41.9573 59.922 41.584C59.25 41.2 58.722 40.6613 58.338 39.968C57.9647 39.2747 57.778 38.4747 57.778 37.568C57.778 36.6507 57.9647 35.8453 58.338 35.152C58.7113 34.4587 59.234 33.9253 59.906 33.552C60.578 33.1787 61.3513 32.992 62.226 32.992C63.0687 32.992 63.8207 33.1733 64.482 33.536C65.154 33.8987 65.6713 34.416 66.034 35.088C66.4073 35.7493 66.594 36.512 66.594 37.376ZM64.274 36.736C64.2633 36.16 64.0553 35.7013 63.65 35.36C63.2447 35.008 62.7487 34.832 62.162 34.832C61.6073 34.832 61.138 35.0027 60.754 35.344C60.3807 35.6747 60.1513 36.1387 60.066 36.736H64.274ZM71.621 42.144C70.8957 42.144 70.245 42.016 69.669 41.76C69.093 41.4933 68.6343 41.136 68.293 40.688C67.9623 40.24 67.781 39.744 67.749 39.2H70.005C70.0477 39.5413 70.213 39.824 70.501 40.048C70.7997 40.272 71.1677 40.384 71.605 40.384C72.0317 40.384 72.3623 40.2987 72.597 40.128C72.8423 39.9573 72.965 39.7387 72.965 39.472C72.965 39.184 72.8157 38.9707 72.517 38.832C72.229 38.6827 71.765 38.5227 71.125 38.352C70.4637 38.192 69.9197 38.0267 69.493 37.856C69.077 37.6853 68.7143 37.424 68.405 37.072C68.1063 36.72 67.957 36.2453 67.957 35.648C67.957 35.1573 68.0957 34.7093 68.373 34.304C68.661 33.8987 69.0663 33.5787 69.589 33.344C70.1223 33.1093 70.7463 32.992 71.461 32.992C72.517 32.992 73.3597 33.2587 73.989 33.792C74.6183 34.3147 74.965 35.024 75.029 35.92H72.885C72.853 35.568 72.7037 35.2907 72.437 35.088C72.181 34.8747 71.8343 34.768 71.397 34.768C70.9917 34.768 70.677 34.8427 70.453 34.992C70.2397 35.1413 70.133 35.3493 70.133 35.616C70.133 35.9147 70.2823 36.144 70.581 36.304C70.8797 36.4533 71.3437 36.608 71.973 36.768C72.613 36.928 73.141 37.0933 73.557 37.264C73.973 37.4347 74.3303 37.7013 74.629 38.064C74.9383 38.416 75.0983 38.8853 75.109 39.472C75.109 39.984 74.965 40.4427 74.677 40.848C74.3997 41.2533 73.9943 41.5733 73.461 41.808C72.9383 42.032 72.325 42.144 71.621 42.144ZM80.1842 37.536C80.1842 36.64 80.3602 35.8453 80.7122 35.152C81.0749 34.4587 81.5603 33.9253 82.1683 33.552C82.7869 33.1787 83.4749 32.992 84.2323 32.992C84.8936 32.992 85.4696 33.1253 85.9603 33.392C86.4616 33.6587 86.8616 33.9947 87.1603 34.4V33.136H89.4163V42H87.1603V40.704C86.8723 41.12 86.4723 41.4667 85.9603 41.744C85.4589 42.0107 84.8776 42.144 84.2163 42.144C83.4696 42.144 82.7869 41.952 82.1683 41.568C81.5603 41.184 81.0749 40.6453 80.7122 39.952C80.3602 39.248 80.1842 38.4427 80.1842 37.536ZM87.1603 37.568C87.1603 37.024 87.0536 36.56 86.8403 36.176C86.6269 35.7813 86.3389 35.4827 85.9763 35.28C85.6136 35.0667 85.2243 34.96 84.8083 34.96C84.3923 34.96 84.0083 35.0613 83.6562 35.264C83.3043 35.4667 83.0163 35.7653 82.7923 36.16C82.5789 36.544 82.4723 37.0027 82.4723 37.536C82.4723 38.0693 82.5789 38.5387 82.7923 38.944C83.0163 39.3387 83.3043 39.6427 83.6562 39.856C84.0189 40.0693 84.4029 40.176 84.8083 40.176C85.2243 40.176 85.6136 40.0747 85.9763 39.872C86.3389 39.6587 86.6269 39.36 86.8403 38.976C87.0536 38.5813 87.1603 38.112 87.1603 37.568ZM91.028 37.536C91.028 36.64 91.204 35.8453 91.556 35.152C91.9187 34.4587 92.4093 33.9253 93.028 33.552C93.6467 33.1787 94.3347 32.992 95.092 32.992C95.668 32.992 96.2173 33.12 96.74 33.376C97.2627 33.6213 97.6787 33.952 97.988 34.368V30.16H100.26V42H97.988V40.688C97.7107 41.1253 97.3213 41.4773 96.82 41.744C96.3187 42.0107 95.7373 42.144 95.076 42.144C94.3293 42.144 93.6467 41.952 93.028 41.568C92.4093 41.184 91.9187 40.6453 91.556 39.952C91.204 39.248 91.028 38.4427 91.028 37.536ZM98.004 37.568C98.004 37.024 97.8973 36.56 97.684 36.176C97.4707 35.7813 97.1827 35.4827 96.82 35.28C96.4573 35.0667 96.068 34.96 95.652 34.96C95.236 34.96 94.852 35.0613 94.5 35.264C94.148 35.4667 93.86 35.7653 93.636 36.16C93.4227 36.544 93.316 37.0027 93.316 37.536C93.316 38.0693 93.4227 38.5387 93.636 38.944C93.86 39.3387 94.148 39.6427 94.5 39.856C94.8627 40.0693 95.2467 40.176 95.652 40.176C96.068 40.176 96.4573 40.0747 96.82 39.872C97.1827 39.6587 97.4707 39.36 97.684 38.976C97.8973 38.5813 98.004 38.112 98.004 37.568ZM103.584 32.08C103.189 32.08 102.858 31.9573 102.592 31.712C102.336 31.456 102.208 31.1413 102.208 30.768C102.208 30.3947 102.336 30.0853 102.592 29.84C102.858 29.584 103.189 29.456 103.584 29.456C103.978 29.456 104.304 29.584 104.56 29.84C104.826 30.0853 104.96 30.3947 104.96 30.768C104.96 31.1413 104.826 31.456 104.56 31.712C104.304 31.9573 103.978 32.08 103.584 32.08ZM104.688 33.136V42H102.448V33.136H104.688ZM106.325 37.568C106.325 36.6507 106.512 35.8507 106.885 35.168C107.258 34.4747 107.776 33.9413 108.437 33.568C109.098 33.184 109.856 32.992 110.709 32.992C111.808 32.992 112.714 33.2693 113.429 33.824C114.154 34.368 114.64 35.136 114.885 36.128H112.469C112.341 35.744 112.122 35.4453 111.813 35.232C111.514 35.008 111.141 34.896 110.693 34.896C110.053 34.896 109.546 35.1307 109.173 35.6C108.8 36.0587 108.613 36.7147 108.613 37.568C108.613 38.4107 108.8 39.0667 109.173 39.536C109.546 39.9947 110.053 40.224 110.693 40.224C111.6 40.224 112.192 39.8187 112.469 39.008H114.885C114.64 39.968 114.154 40.7307 113.429 41.296C112.704 41.8613 111.797 42.144 110.709 42.144C109.856 42.144 109.098 41.9573 108.437 41.584C107.776 41.2 107.258 40.6667 106.885 39.984C106.512 39.2907 106.325 38.4853 106.325 37.568ZM117.662 32.08C117.267 32.08 116.937 31.9573 116.67 31.712C116.414 31.456 116.286 31.1413 116.286 30.768C116.286 30.3947 116.414 30.0853 116.67 29.84C116.937 29.584 117.267 29.456 117.662 29.456C118.057 29.456 118.382 29.584 118.638 29.84C118.905 30.0853 119.038 30.3947 119.038 30.768C119.038 31.1413 118.905 31.456 118.638 31.712C118.382 31.9573 118.057 32.08 117.662 32.08ZM118.766 33.136V42H116.526V33.136H118.766ZM124.915 42.144C124.062 42.144 123.294 41.9573 122.611 41.584C121.928 41.2 121.39 40.6613 120.995 39.968C120.611 39.2747 120.419 38.4747 120.419 37.568C120.419 36.6613 120.616 35.8613 121.011 35.168C121.416 34.4747 121.966 33.9413 122.659 33.568C123.352 33.184 124.126 32.992 124.979 32.992C125.832 32.992 126.606 33.184 127.299 33.568C127.992 33.9413 128.536 34.4747 128.931 35.168C129.336 35.8613 129.539 36.6613 129.539 37.568C129.539 38.4747 129.331 39.2747 128.915 39.968C128.51 40.6613 127.955 41.2 127.251 41.584C126.558 41.9573 125.779 42.144 124.915 42.144ZM124.915 40.192C125.32 40.192 125.699 40.096 126.051 39.904C126.414 39.7013 126.702 39.4027 126.915 39.008C127.128 38.6133 127.235 38.1333 127.235 37.568C127.235 36.7253 127.011 36.08 126.563 35.632C126.126 35.1733 125.587 34.944 124.947 34.944C124.307 34.944 123.768 35.1733 123.331 35.632C122.904 36.08 122.691 36.7253 122.691 37.568C122.691 38.4107 122.899 39.0613 123.315 39.52C123.742 39.968 124.275 40.192 124.915 40.192ZM136.094 33.008C137.15 33.008 138.003 33.344 138.654 34.016C139.305 34.6773 139.63 35.6053 139.63 36.8V42H137.39V37.104C137.39 36.4 137.214 35.8613 136.862 35.488C136.51 35.104 136.03 34.912 135.422 34.912C134.803 34.912 134.313 35.104 133.95 35.488C133.598 35.8613 133.422 36.4 133.422 37.104V42H131.182V33.136H133.422V34.24C133.721 33.856 134.099 33.5573 134.558 33.344C135.027 33.12 135.539 33.008 136.094 33.008ZM141.184 37.536C141.184 36.64 141.36 35.8453 141.712 35.152C142.075 34.4587 142.56 33.9253 143.168 33.552C143.787 33.1787 144.475 32.992 145.232 32.992C145.894 32.992 146.47 33.1253 146.96 33.392C147.462 33.6587 147.862 33.9947 148.16 34.4V33.136H150.416V42H148.16V40.704C147.872 41.12 147.472 41.4667 146.96 41.744C146.459 42.0107 145.878 42.144 145.216 42.144C144.47 42.144 143.787 41.952 143.168 41.568C142.56 41.184 142.075 40.6453 141.712 39.952C141.36 39.248 141.184 38.4427 141.184 37.536ZM148.16 37.568C148.16 37.024 148.054 36.56 147.84 36.176C147.627 35.7813 147.339 35.4827 146.976 35.28C146.614 35.0667 146.224 34.96 145.808 34.96C145.392 34.96 145.008 35.0613 144.656 35.264C144.304 35.4667 144.016 35.7653 143.792 36.16C143.579 36.544 143.472 37.0027 143.472 37.536C143.472 38.0693 143.579 38.5387 143.792 38.944C144.016 39.3387 144.304 39.6427 144.656 39.856C145.019 40.0693 145.403 40.176 145.808 40.176C146.224 40.176 146.614 40.0747 146.976 39.872C147.339 39.6587 147.627 39.36 147.84 38.976C148.054 38.5813 148.16 38.112 148.16 37.568ZM152.028 37.536C152.028 36.64 152.204 35.8453 152.556 35.152C152.919 34.4587 153.409 33.9253 154.028 33.552C154.647 33.1787 155.335 32.992 156.092 32.992C156.668 32.992 157.217 33.12 157.74 33.376C158.263 33.6213 158.679 33.952 158.988 34.368V30.16H161.26V42H158.988V40.688C158.711 41.1253 158.321 41.4773 157.82 41.744C157.319 42.0107 156.737 42.144 156.076 42.144C155.329 42.144 154.647 41.952 154.028 41.568C153.409 41.184 152.919 40.6453 152.556 39.952C152.204 39.248 152.028 38.4427 152.028 37.536ZM159.004 37.568C159.004 37.024 158.897 36.56 158.684 36.176C158.471 35.7813 158.183 35.4827 157.82 35.28C157.457 35.0667 157.068 34.96 156.652 34.96C156.236 34.96 155.852 35.0613 155.5 35.264C155.148 35.4667 154.86 35.7653 154.636 36.16C154.423 36.544 154.316 37.0027 154.316 37.536C154.316 38.0693 154.423 38.5387 154.636 38.944C154.86 39.3387 155.148 39.6427 155.5 39.856C155.863 40.0693 156.247 40.176 156.652 40.176C157.068 40.176 157.457 40.0747 157.82 39.872C158.183 39.6587 158.471 39.36 158.684 38.976C158.897 38.5813 159.004 38.112 159.004 37.568ZM162.872 37.536C162.872 36.64 163.048 35.8453 163.4 35.152C163.762 34.4587 164.248 33.9253 164.856 33.552C165.474 33.1787 166.162 32.992 166.92 32.992C167.581 32.992 168.157 33.1253 168.648 33.392C169.149 33.6587 169.549 33.9947 169.848 34.4V33.136H172.104V42H169.848V40.704C169.56 41.12 169.16 41.4667 168.648 41.744C168.146 42.0107 167.565 42.144 166.904 42.144C166.157 42.144 165.474 41.952 164.856 41.568C164.248 41.184 163.762 40.6453 163.4 39.952C163.048 39.248 162.872 38.4427 162.872 37.536ZM169.848 37.568C169.848 37.024 169.741 36.56 169.528 36.176C169.314 35.7813 169.026 35.4827 168.664 35.28C168.301 35.0667 167.912 34.96 167.496 34.96C167.08 34.96 166.696 35.0613 166.344 35.264C165.992 35.4667 165.704 35.7653 165.48 36.16C165.266 36.544 165.16 37.0027 165.16 37.536C165.16 38.0693 165.266 38.5387 165.48 38.944C165.704 39.3387 165.992 39.6427 166.344 39.856C166.706 40.0693 167.09 40.176 167.496 40.176C167.912 40.176 168.301 40.0747 168.664 39.872C169.026 39.6587 169.314 39.36 169.528 38.976C169.741 38.5813 169.848 38.112 169.848 37.568ZM177.684 42.144C176.958 42.144 176.308 42.016 175.732 41.76C175.156 41.4933 174.697 41.136 174.356 40.688C174.025 40.24 173.844 39.744 173.812 39.2H176.068C176.11 39.5413 176.276 39.824 176.564 40.048C176.862 40.272 177.23 40.384 177.668 40.384C178.094 40.384 178.425 40.2987 178.66 40.128C178.905 39.9573 179.028 39.7387 179.028 39.472C179.028 39.184 178.878 38.9707 178.58 38.832C178.292 38.6827 177.828 38.5227 177.188 38.352C176.526 38.192 175.982 38.0267 175.556 37.856C175.14 37.6853 174.777 37.424 174.468 37.072C174.169 36.72 174.02 36.2453 174.02 35.648C174.02 35.1573 174.158 34.7093 174.436 34.304C174.724 33.8987 175.129 33.5787 175.652 33.344C176.185 33.1093 176.809 32.992 177.524 32.992C178.58 32.992 179.422 33.2587 180.052 33.792C180.681 34.3147 181.028 35.024 181.092 35.92H178.948C178.916 35.568 178.766 35.2907 178.5 35.088C178.244 34.8747 177.897 34.768 177.46 34.768C177.054 34.768 176.74 34.8427 176.516 34.992C176.302 35.1413 176.196 35.3493 176.196 35.616C176.196 35.9147 176.345 36.144 176.644 36.304C176.942 36.4533 177.406 36.608 178.036 36.768C178.676 36.928 179.204 37.0933 179.62 37.264C180.036 37.4347 180.393 37.7013 180.692 38.064C181.001 38.416 181.161 38.8853 181.172 39.472C181.172 39.984 181.028 40.4427 180.74 40.848C180.462 41.2533 180.057 41.5733 179.524 41.808C179.001 42.032 178.388 42.144 177.684 42.144ZM190.215 42.144C189.489 42.144 188.839 42.016 188.263 41.76C187.687 41.4933 187.228 41.136 186.887 40.688C186.556 40.24 186.375 39.744 186.343 39.2H188.599C188.641 39.5413 188.807 39.824 189.095 40.048C189.393 40.272 189.761 40.384 190.199 40.384C190.625 40.384 190.956 40.2987 191.191 40.128C191.436 39.9573 191.559 39.7387 191.559 39.472C191.559 39.184 191.409 38.9707 191.111 38.832C190.823 38.6827 190.359 38.5227 189.719 38.352C189.057 38.192 188.513 38.0267 188.087 37.856C187.671 37.6853 187.308 37.424 186.999 37.072C186.7 36.72 186.551 36.2453 186.551 35.648C186.551 35.1573 186.689 34.7093 186.967 34.304C187.255 33.8987 187.66 33.5787 188.183 33.344C188.716 33.1093 189.34 32.992 190.055 32.992C191.111 32.992 191.953 33.2587 192.583 33.792C193.212 34.3147 193.559 35.024 193.623 35.92H191.479C191.447 35.568 191.297 35.2907 191.031 35.088C190.775 34.8747 190.428 34.768 189.991 34.768C189.585 34.768 189.271 34.8427 189.047 34.992C188.833 35.1413 188.727 35.3493 188.727 35.616C188.727 35.9147 188.876 36.144 189.175 36.304C189.473 36.4533 189.937 36.608 190.567 36.768C191.207 36.928 191.735 37.0933 192.151 37.264C192.567 37.4347 192.924 37.7013 193.223 38.064C193.532 38.416 193.692 38.8853 193.703 39.472C193.703 39.984 193.559 40.4427 193.271 40.848C192.993 41.2533 192.588 41.5733 192.055 41.808C191.532 42.032 190.919 42.144 190.215 42.144ZM203.782 37.376C203.782 37.696 203.76 37.984 203.718 38.24H197.238C197.291 38.88 197.515 39.3813 197.91 39.744C198.304 40.1067 198.79 40.288 199.366 40.288C200.198 40.288 200.79 39.9307 201.142 39.216H203.558C203.302 40.0693 202.811 40.7733 202.086 41.328C201.36 41.872 200.47 42.144 199.414 42.144C198.56 42.144 197.792 41.9573 197.11 41.584C196.438 41.2 195.91 40.6613 195.526 39.968C195.152 39.2747 194.965 38.4747 194.965 37.568C194.965 36.6507 195.152 35.8453 195.526 35.152C195.899 34.4587 196.422 33.9253 197.094 33.552C197.766 33.1787 198.539 32.992 199.414 32.992C200.256 32.992 201.008 33.1733 201.67 33.536C202.342 33.8987 202.859 34.416 203.222 35.088C203.595 35.7493 203.782 36.512 203.782 37.376ZM201.462 36.736C201.451 36.16 201.243 35.7013 200.838 35.36C200.432 35.008 199.936 34.832 199.35 34.832C198.795 34.832 198.326 35.0027 197.942 35.344C197.568 35.6747 197.339 36.1387 197.254 36.736H201.462ZM216.425 33.008C217.513 33.008 218.387 33.344 219.049 34.016C219.721 34.6773 220.057 35.6053 220.057 36.8V42H217.817V37.104C217.817 36.4107 217.641 35.8827 217.289 35.52C216.937 35.1467 216.457 34.96 215.849 34.96C215.241 34.96 214.755 35.1467 214.393 35.52C214.041 35.8827 213.865 36.4107 213.865 37.104V42H211.625V37.104C211.625 36.4107 211.449 35.8827 211.097 35.52C210.745 35.1467 210.265 34.96 209.657 34.96C209.038 34.96 208.547 35.1467 208.185 35.52C207.833 35.8827 207.657 36.4107 207.657 37.104V42H205.417V33.136H207.657V34.208C207.945 33.8347 208.313 33.5413 208.761 33.328C209.219 33.1147 209.721 33.008 210.265 33.008C210.958 33.008 211.577 33.1573 212.121 33.456C212.665 33.744 213.086 34.16 213.385 34.704C213.673 34.192 214.089 33.7813 214.633 33.472C215.187 33.1627 215.785 33.008 216.425 33.008ZM221.606 37.536C221.606 36.64 221.782 35.8453 222.134 35.152C222.497 34.4587 222.982 33.9253 223.59 33.552C224.209 33.1787 224.897 32.992 225.654 32.992C226.315 32.992 226.891 33.1253 227.382 33.392C227.883 33.6587 228.283 33.9947 228.582 34.4V33.136H230.838V42H228.582V40.704C228.294 41.12 227.894 41.4667 227.382 41.744C226.881 42.0107 226.299 42.144 225.638 42.144C224.891 42.144 224.209 41.952 223.59 41.568C222.982 41.184 222.497 40.6453 222.134 39.952C221.782 39.248 221.606 38.4427 221.606 37.536ZM228.582 37.568C228.582 37.024 228.475 36.56 228.262 36.176C228.049 35.7813 227.761 35.4827 227.398 35.28C227.035 35.0667 226.646 34.96 226.23 34.96C225.814 34.96 225.43 35.0613 225.078 35.264C224.726 35.4667 224.438 35.7653 224.214 36.16C224.001 36.544 223.894 37.0027 223.894 37.536C223.894 38.0693 224.001 38.5387 224.214 38.944C224.438 39.3387 224.726 39.6427 225.078 39.856C225.441 40.0693 225.825 40.176 226.23 40.176C226.646 40.176 227.035 40.0747 227.398 39.872C227.761 39.6587 228.049 39.36 228.262 38.976C228.475 38.5813 228.582 38.112 228.582 37.568ZM237.938 33.008C238.994 33.008 239.847 33.344 240.498 34.016C241.149 34.6773 241.474 35.6053 241.474 36.8V42H239.234V37.104C239.234 36.4 239.058 35.8613 238.706 35.488C238.354 35.104 237.874 34.912 237.266 34.912C236.647 34.912 236.157 35.104 235.794 35.488C235.442 35.8613 235.266 36.4 235.266 37.104V42H233.026V33.136H235.266V34.24C235.565 33.856 235.943 33.5573 236.402 33.344C236.871 33.12 237.383 33.008 237.938 33.008ZM243.028 37.536C243.028 36.64 243.204 35.8453 243.556 35.152C243.919 34.4587 244.404 33.9253 245.012 33.552C245.631 33.1787 246.319 32.992 247.076 32.992C247.737 32.992 248.313 33.1253 248.804 33.392C249.305 33.6587 249.705 33.9947 250.004 34.4V33.136H252.26V42H250.004V40.704C249.716 41.12 249.316 41.4667 248.804 41.744C248.303 42.0107 247.721 42.144 247.06 42.144C246.313 42.144 245.631 41.952 245.012 41.568C244.404 41.184 243.919 40.6453 243.556 39.952C243.204 39.248 243.028 38.4427 243.028 37.536ZM250.004 37.568C250.004 37.024 249.897 36.56 249.684 36.176C249.471 35.7813 249.183 35.4827 248.82 35.28C248.457 35.0667 248.068 34.96 247.652 34.96C247.236 34.96 246.852 35.0613 246.5 35.264C246.148 35.4667 245.86 35.7653 245.636 36.16C245.423 36.544 245.316 37.0027 245.316 37.536C245.316 38.0693 245.423 38.5387 245.636 38.944C245.86 39.3387 246.148 39.6427 246.5 39.856C246.863 40.0693 247.247 40.176 247.652 40.176C248.068 40.176 248.457 40.0747 248.82 39.872C249.183 39.6587 249.471 39.36 249.684 38.976C249.897 38.5813 250.004 38.112 250.004 37.568ZM256.688 30.16V42H254.448V30.16H256.688ZM269.909 33.008C270.997 33.008 271.872 33.344 272.533 34.016C273.205 34.6773 273.541 35.6053 273.541 36.8V42H271.301V37.104C271.301 36.4107 271.125 35.8827 270.773 35.52C270.421 35.1467 269.941 34.96 269.333 34.96C268.725 34.96 268.24 35.1467 267.877 35.52C267.525 35.8827 267.349 36.4107 267.349 37.104V42H265.109V37.104C265.109 36.4107 264.933 35.8827 264.581 35.52C264.229 35.1467 263.749 34.96 263.141 34.96C262.522 34.96 262.032 35.1467 261.669 35.52C261.317 35.8827 261.141 36.4107 261.141 37.104V42H258.901V33.136H261.141V34.208C261.429 33.8347 261.797 33.5413 262.245 33.328C262.704 33.1147 263.205 33.008 263.749 33.008C264.442 33.008 265.061 33.1573 265.605 33.456C266.149 33.744 266.57 34.16 266.869 34.704C267.157 34.192 267.573 33.7813 268.117 33.472C268.672 33.1627 269.269 33.008 269.909 33.008ZM283.907 37.376C283.907 37.696 283.885 37.984 283.843 38.24H277.363C277.416 38.88 277.64 39.3813 278.035 39.744C278.429 40.1067 278.915 40.288 279.491 40.288C280.323 40.288 280.915 39.9307 281.267 39.216H283.683C283.427 40.0693 282.936 40.7733 282.211 41.328C281.485 41.872 280.595 42.144 279.539 42.144C278.685 42.144 277.917 41.9573 277.235 41.584C276.563 41.2 276.035 40.6613 275.651 39.968C275.277 39.2747 275.09 38.4747 275.09 37.568C275.09 36.6507 275.277 35.8453 275.651 35.152C276.024 34.4587 276.547 33.9253 277.219 33.552C277.891 33.1787 278.664 32.992 279.539 32.992C280.381 32.992 281.133 33.1733 281.795 33.536C282.467 33.8987 282.984 34.416 283.347 35.088C283.72 35.7493 283.907 36.512 283.907 37.376ZM281.587 36.736C281.576 36.16 281.368 35.7013 280.963 35.36C280.557 35.008 280.061 34.832 279.475 34.832C278.92 34.832 278.451 35.0027 278.067 35.344C277.693 35.6747 277.464 36.1387 277.379 36.736H281.587ZM290.454 33.008C291.51 33.008 292.363 33.344 293.014 34.016C293.664 34.6773 293.99 35.6053 293.99 36.8V42H291.75V37.104C291.75 36.4 291.574 35.8613 291.222 35.488C290.87 35.104 290.39 34.912 289.782 34.912C289.163 34.912 288.672 35.104 288.31 35.488C287.958 35.8613 287.782 36.4 287.782 37.104V42H285.542V33.136H287.782V34.24C288.08 33.856 288.459 33.5573 288.918 33.344C289.387 33.12 289.899 33.008 290.454 33.008ZM298.728 34.976V39.264C298.728 39.5627 298.797 39.7813 298.936 39.92C299.085 40.048 299.33 40.112 299.672 40.112H300.712V42H299.304C297.416 42 296.472 41.0827 296.472 39.248V34.976H295.416V33.136H296.472V30.944H298.728V33.136H300.712V34.976H298.728ZM310.563 37.376C310.563 37.696 310.541 37.984 310.499 38.24H304.019C304.072 38.88 304.296 39.3813 304.691 39.744C305.085 40.1067 305.571 40.288 306.147 40.288C306.979 40.288 307.571 39.9307 307.923 39.216H310.339C310.083 40.0693 309.592 40.7733 308.867 41.328C308.141 41.872 307.251 42.144 306.195 42.144C305.341 42.144 304.573 41.9573 303.891 41.584C303.219 41.2 302.691 40.6613 302.307 39.968C301.933 39.2747 301.747 38.4747 301.747 37.568C301.747 36.6507 301.933 35.8453 302.307 35.152C302.68 34.4587 303.203 33.9253 303.875 33.552C304.547 33.1787 305.32 32.992 306.195 32.992C307.037 32.992 307.789 33.1733 308.451 33.536C309.123 33.8987 309.64 34.416 310.003 35.088C310.376 35.7493 310.563 36.512 310.563 37.376ZM308.243 36.736C308.232 36.16 308.024 35.7013 307.619 35.36C307.213 35.008 306.717 34.832 306.131 34.832C305.576 34.832 305.107 35.0027 304.723 35.344C304.349 35.6747 304.12 36.1387 304.035 36.736H308.243Z" fill="white"/>
<path d="M39.322 79.984H34.408V83.176C34.6227 82.8773 34.94 82.6347 35.36 82.448C35.78 82.252 36.2327 82.154 36.718 82.154C37.4927 82.154 38.1227 82.3173 38.608 82.644C39.0933 82.9613 39.4387 83.3767 39.644 83.89C39.8587 84.394 39.966 84.9307 39.966 85.5C39.966 86.172 39.84 86.774 39.588 87.306C39.336 87.838 38.9487 88.258 38.426 88.566C37.9127 88.874 37.2733 89.028 36.508 89.028C35.528 89.028 34.7347 88.776 34.128 88.272C33.5213 87.768 33.1527 87.096 33.022 86.256H34.268C34.3893 86.788 34.646 87.2033 35.038 87.502C35.43 87.8007 35.9247 87.95 36.522 87.95C37.2593 87.95 37.8147 87.7307 38.188 87.292C38.5613 86.844 38.748 86.256 38.748 85.528C38.748 84.8 38.5613 84.24 38.188 83.848C37.8147 83.4467 37.264 83.246 36.536 83.246C36.0413 83.246 35.6073 83.3673 35.234 83.61C34.87 83.8433 34.604 84.1653 34.436 84.576H33.232V78.864H39.322V79.984ZM41.659 83.834C41.659 82.2287 41.9203 80.978 42.443 80.082C42.9657 79.1767 43.8803 78.724 45.187 78.724C46.4843 78.724 47.3943 79.1767 47.917 80.082C48.4397 80.978 48.701 82.2287 48.701 83.834C48.701 85.4673 48.4397 86.7367 47.917 87.642C47.3943 88.5473 46.4843 89 45.187 89C43.8803 89 42.9657 88.5473 42.443 87.642C41.9203 86.7367 41.659 85.4673 41.659 83.834ZM47.441 83.834C47.441 83.022 47.385 82.336 47.273 81.776C47.1703 81.2067 46.951 80.7493 46.615 80.404C46.2883 80.0587 45.8123 79.886 45.187 79.886C44.5523 79.886 44.067 80.0587 43.731 80.404C43.4043 80.7493 43.185 81.2067 43.073 81.776C42.9703 82.336 42.919 83.022 42.919 83.834C42.919 84.674 42.9703 85.3787 43.073 85.948C43.185 86.5173 43.4043 86.9747 43.731 87.32C44.067 87.6653 44.5523 87.838 45.187 87.838C45.8123 87.838 46.2883 87.6653 46.615 87.32C46.951 86.9747 47.1703 86.5173 47.273 85.948C47.385 85.3787 47.441 84.674 47.441 83.834Z" fill="#3D94EF"/>
<path d="M32.56 109.746V108.78L37.474 101.976H39V108.64H40.4V109.746H39V112H37.74V109.746H32.56ZM37.796 103.306L34.03 108.64H37.796V103.306ZM41.6727 106.834C41.6727 105.229 41.934 103.978 42.4567 103.082C42.9794 102.177 43.894 101.724 45.2007 101.724C46.498 101.724 47.408 102.177 47.9307 103.082C48.4534 103.978 48.7147 105.229 48.7147 106.834C48.7147 108.467 48.4534 109.737 47.9307 110.642C47.408 111.547 46.498 112 45.2007 112C43.894 112 42.9794 111.547 42.4567 110.642C41.934 109.737 41.6727 108.467 41.6727 106.834ZM47.4547 106.834C47.4547 106.022 47.3987 105.336 47.2867 104.776C47.184 104.207 46.9647 103.749 46.6287 103.404C46.302 103.059 45.826 102.886 45.2007 102.886C44.566 102.886 44.0807 103.059 43.7447 103.404C43.418 103.749 43.1987 104.207 43.0867 104.776C42.984 105.336 42.9327 106.022 42.9327 106.834C42.9327 107.674 42.984 108.379 43.0867 108.948C43.1987 109.517 43.418 109.975 43.7447 110.32C44.0807 110.665 44.566 110.838 45.2007 110.838C45.826 110.838 46.302 110.665 46.6287 110.32C46.9647 109.975 47.184 109.517 47.2867 108.948C47.3987 108.379 47.4547 107.674 47.4547 106.834Z" fill="#3D94EF"/>
<path d="M33.84 127.426C33.9053 126.567 34.2367 125.895 34.834 125.41C35.4313 124.925 36.206 124.682 37.158 124.682C37.7927 124.682 38.3387 124.799 38.796 125.032C39.2627 125.256 39.6127 125.564 39.846 125.956C40.0887 126.348 40.21 126.791 40.21 127.286C40.21 127.865 40.042 128.364 39.706 128.784C39.3793 129.204 38.95 129.475 38.418 129.596V129.666C39.0247 129.815 39.5053 130.109 39.86 130.548C40.2147 130.987 40.392 131.561 40.392 132.27C40.392 132.802 40.2707 133.283 40.028 133.712C39.7853 134.132 39.4213 134.463 38.936 134.706C38.4507 134.949 37.8673 135.07 37.186 135.07C36.1967 135.07 35.3847 134.813 34.75 134.3C34.1153 133.777 33.7607 133.04 33.686 132.088H34.918C34.9833 132.648 35.212 133.105 35.604 133.46C35.996 133.815 36.5187 133.992 37.172 133.992C37.8253 133.992 38.32 133.824 38.656 133.488C39.0013 133.143 39.174 132.699 39.174 132.158C39.174 131.458 38.9407 130.954 38.474 130.646C38.0073 130.338 37.3027 130.184 36.36 130.184H36.038V129.12H36.374C37.2327 129.111 37.8813 128.971 38.32 128.7C38.7587 128.42 38.978 127.991 38.978 127.412C38.978 126.917 38.8147 126.521 38.488 126.222C38.1707 125.923 37.7133 125.774 37.116 125.774C36.5373 125.774 36.0707 125.923 35.716 126.222C35.3613 126.521 35.1513 126.922 35.086 127.426H33.84ZM42.1121 129.834C42.1121 128.229 42.3735 126.978 42.8961 126.082C43.4188 125.177 44.3335 124.724 45.6401 124.724C46.9375 124.724 47.8475 125.177 48.3701 126.082C48.8928 126.978 49.1541 128.229 49.1541 129.834C49.1541 131.467 48.8928 132.737 48.3701 133.642C47.8475 134.547 46.9375 135 45.6401 135C44.3335 135 43.4188 134.547 42.8961 133.642C42.3735 132.737 42.1121 131.467 42.1121 129.834ZM47.8941 129.834C47.8941 129.022 47.8381 128.336 47.7261 127.776C47.6235 127.207 47.4041 126.749 47.0681 126.404C46.7415 126.059 46.2655 125.886 45.6401 125.886C45.0055 125.886 44.5201 126.059 44.1841 126.404C43.8575 126.749 43.6381 127.207 43.5261 127.776C43.4235 128.336 43.3721 129.022 43.3721 129.834C43.3721 130.674 43.4235 131.379 43.5261 131.948C43.6381 132.517 43.8575 132.975 44.1841 133.32C44.5201 133.665 45.0055 133.838 45.6401 133.838C46.2655 133.838 46.7415 133.665 47.0681 133.32C47.4041 132.975 47.6235 132.517 47.7261 131.948C47.8381 131.379 47.8941 130.674 47.8941 129.834Z" fill="#3D94EF"/>
<path d="M33.714 156.978C34.8993 156.026 35.828 155.247 36.5 154.64C37.172 154.024 37.7367 153.385 38.194 152.722C38.6607 152.05 38.894 151.392 38.894 150.748C38.894 150.141 38.7447 149.665 38.446 149.32C38.1567 148.965 37.6853 148.788 37.032 148.788C36.3973 148.788 35.9027 148.989 35.548 149.39C35.2027 149.782 35.016 150.309 34.988 150.972H33.756C33.7933 149.927 34.1107 149.119 34.708 148.55C35.3053 147.981 36.0753 147.696 37.018 147.696C37.9793 147.696 38.74 147.962 39.3 148.494C39.8693 149.026 40.154 149.759 40.154 150.692C40.154 151.467 39.9207 152.223 39.454 152.96C38.9967 153.688 38.474 154.332 37.886 154.892C37.298 155.443 36.5467 156.087 35.632 156.824H40.448V157.888H33.714V156.978ZM41.9207 152.834C41.9207 151.229 42.1821 149.978 42.7047 149.082C43.2274 148.177 44.1421 147.724 45.4487 147.724C46.7461 147.724 47.6561 148.177 48.1787 149.082C48.7014 149.978 48.9627 151.229 48.9627 152.834C48.9627 154.467 48.7014 155.737 48.1787 156.642C47.6561 157.547 46.7461 158 45.4487 158C44.1421 158 43.2274 157.547 42.7047 156.642C42.1821 155.737 41.9207 154.467 41.9207 152.834ZM47.7027 152.834C47.7027 152.022 47.6467 151.336 47.5347 150.776C47.4321 150.207 47.2127 149.749 46.8767 149.404C46.5501 149.059 46.0741 148.886 45.4487 148.886C44.8141 148.886 44.3287 149.059 43.9927 149.404C43.6661 149.749 43.4467 150.207 43.3347 150.776C43.2321 151.336 43.1807 152.022 43.1807 152.834C43.1807 153.674 43.2321 154.379 43.3347 154.948C43.4467 155.517 43.6661 155.975 43.9927 156.32C44.3287 156.665 44.8141 156.838 45.4487 156.838C46.0741 156.838 46.5501 156.665 46.8767 156.32C47.2127 155.975 47.4321 155.517 47.5347 154.948C47.6467 154.379 47.7027 153.674 47.7027 152.834Z" fill="#3D94EF"/>
<path d="M36.532 172.04V170.878H39.164V181H37.876V172.04H36.532ZM41.3524 175.834C41.3524 174.229 41.6137 172.978 42.1364 172.082C42.659 171.177 43.5737 170.724 44.8804 170.724C46.1777 170.724 47.0877 171.177 47.6104 172.082C48.133 172.978 48.3944 174.229 48.3944 175.834C48.3944 177.467 48.133 178.737 47.6104 179.642C47.0877 180.547 46.1777 181 44.8804 181C43.5737 181 42.659 180.547 42.1364 179.642C41.6137 178.737 41.3524 177.467 41.3524 175.834ZM47.1344 175.834C47.1344 175.022 47.0784 174.336 46.9664 173.776C46.8637 173.207 46.6444 172.749 46.3084 172.404C45.9817 172.059 45.5057 171.886 44.8804 171.886C44.2457 171.886 43.7604 172.059 43.4244 172.404C43.0977 172.749 42.8784 173.207 42.7664 173.776C42.6637 174.336 42.6124 175.022 42.6124 175.834C42.6124 176.674 42.6637 177.379 42.7664 177.948C42.8784 178.517 43.0977 178.975 43.4244 179.32C43.7604 179.665 44.2457 179.838 44.8804 179.838C45.5057 179.838 45.9817 179.665 46.3084 179.32C46.6444 178.975 46.8637 178.517 46.9664 177.948C47.0784 177.379 47.1344 176.674 47.1344 175.834Z" fill="#3D94EF"/>
<path d="M41.868 198.834C41.868 197.229 42.1293 195.978 42.652 195.082C43.1747 194.177 44.0893 193.724 45.396 193.724C46.6933 193.724 47.6033 194.177 48.126 195.082C48.6487 195.978 48.91 197.229 48.91 198.834C48.91 200.467 48.6487 201.737 48.126 202.642C47.6033 203.547 46.6933 204 45.396 204C44.0893 204 43.1747 203.547 42.652 202.642C42.1293 201.737 41.868 200.467 41.868 198.834ZM47.65 198.834C47.65 198.022 47.594 197.336 47.482 196.776C47.3793 196.207 47.16 195.749 46.824 195.404C46.4973 195.059 46.0213 194.886 45.396 194.886C44.7613 194.886 44.276 195.059 43.94 195.404C43.6133 195.749 43.394 196.207 43.282 196.776C43.1793 197.336 43.128 198.022 43.128 198.834C43.128 199.674 43.1793 200.379 43.282 200.948C43.394 201.517 43.6133 201.975 43.94 202.32C44.276 202.665 44.7613 202.838 45.396 202.838C46.0213 202.838 46.4973 202.665 46.824 202.32C47.16 201.975 47.3793 201.517 47.482 200.948C47.594 200.379 47.65 199.674 47.65 198.834Z" fill="#3D94EF"/>
<path d="M319.532 217.04V215.878H322.164V226H320.876V217.04H319.532ZM324.324 218.426C324.39 217.567 324.721 216.895 325.318 216.41C325.916 215.925 326.69 215.682 327.642 215.682C328.277 215.682 328.823 215.799 329.28 216.032C329.747 216.256 330.097 216.564 330.33 216.956C330.573 217.348 330.694 217.791 330.694 218.286C330.694 218.865 330.526 219.364 330.19 219.784C329.864 220.204 329.434 220.475 328.902 220.596V220.666C329.509 220.815 329.99 221.109 330.344 221.548C330.699 221.987 330.876 222.561 330.876 223.27C330.876 223.802 330.755 224.283 330.512 224.712C330.27 225.132 329.906 225.463 329.42 225.706C328.935 225.949 328.352 226.07 327.67 226.07C326.681 226.07 325.869 225.813 325.234 225.3C324.6 224.777 324.245 224.04 324.17 223.088H325.402C325.468 223.648 325.696 224.105 326.088 224.46C326.48 224.815 327.003 224.992 327.656 224.992C328.31 224.992 328.804 224.824 329.14 224.488C329.486 224.143 329.658 223.699 329.658 223.158C329.658 222.458 329.425 221.954 328.958 221.646C328.492 221.338 327.787 221.184 326.844 221.184H326.522V220.12H326.858C327.717 220.111 328.366 219.971 328.804 219.7C329.243 219.42 329.462 218.991 329.462 218.412C329.462 217.917 329.299 217.521 328.972 217.222C328.655 216.923 328.198 216.774 327.6 216.774C327.022 216.774 326.555 216.923 326.2 217.222C325.846 217.521 325.636 217.922 325.57 218.426H324.324ZM342.307 223.83H338.051L337.267 226H335.923L339.451 216.298H340.921L344.435 226H343.091L342.307 223.83ZM341.943 222.794L340.179 217.866L338.415 222.794H341.943ZM349.137 218.202C349.799 218.202 350.378 218.347 350.873 218.636C351.377 218.925 351.75 219.289 351.993 219.728V218.328H353.281V226.168C353.281 226.868 353.131 227.489 352.833 228.03C352.534 228.581 352.105 229.01 351.545 229.318C350.994 229.626 350.35 229.78 349.613 229.78C348.605 229.78 347.765 229.542 347.093 229.066C346.421 228.59 346.024 227.941 345.903 227.12H347.163C347.303 227.587 347.592 227.96 348.031 228.24C348.469 228.529 348.997 228.674 349.613 228.674C350.313 228.674 350.882 228.455 351.321 228.016C351.769 227.577 351.993 226.961 351.993 226.168V224.558C351.741 225.006 351.367 225.379 350.873 225.678C350.378 225.977 349.799 226.126 349.137 226.126C348.455 226.126 347.835 225.958 347.275 225.622C346.724 225.286 346.29 224.815 345.973 224.208C345.655 223.601 345.497 222.911 345.497 222.136C345.497 221.352 345.655 220.666 345.973 220.078C346.29 219.481 346.724 219.019 347.275 218.692C347.835 218.365 348.455 218.202 349.137 218.202ZM351.993 222.15C351.993 221.571 351.876 221.067 351.643 220.638C351.409 220.209 351.092 219.882 350.691 219.658C350.299 219.425 349.865 219.308 349.389 219.308C348.913 219.308 348.479 219.42 348.087 219.644C347.695 219.868 347.382 220.195 347.149 220.624C346.915 221.053 346.799 221.557 346.799 222.136C346.799 222.724 346.915 223.237 347.149 223.676C347.382 224.105 347.695 224.437 348.087 224.67C348.479 224.894 348.913 225.006 349.389 225.006C349.865 225.006 350.299 224.894 350.691 224.67C351.092 224.437 351.409 224.105 351.643 223.676C351.876 223.237 351.993 222.729 351.993 222.15ZM358.779 226.126C358.061 226.126 357.407 225.963 356.819 225.636C356.241 225.309 355.783 224.847 355.447 224.25C355.121 223.643 354.957 222.943 354.957 222.15C354.957 221.366 355.125 220.675 355.461 220.078C355.807 219.471 356.273 219.009 356.861 218.692C357.449 218.365 358.107 218.202 358.835 218.202C359.563 218.202 360.221 218.365 360.809 218.692C361.397 219.009 361.859 219.467 362.195 220.064C362.541 220.661 362.713 221.357 362.713 222.15C362.713 222.943 362.536 223.643 362.181 224.25C361.836 224.847 361.365 225.309 360.767 225.636C360.17 225.963 359.507 226.126 358.779 226.126ZM358.779 225.006C359.237 225.006 359.666 224.899 360.067 224.684C360.469 224.469 360.791 224.147 361.033 223.718C361.285 223.289 361.411 222.766 361.411 222.15C361.411 221.534 361.29 221.011 361.047 220.582C360.805 220.153 360.487 219.835 360.095 219.63C359.703 219.415 359.279 219.308 358.821 219.308C358.355 219.308 357.925 219.415 357.533 219.63C357.151 219.835 356.843 220.153 356.609 220.582C356.376 221.011 356.259 221.534 356.259 222.15C356.259 222.775 356.371 223.303 356.595 223.732C356.829 224.161 357.137 224.483 357.519 224.698C357.902 224.903 358.322 225.006 358.779 225.006Z" fill="#3D94EF"/>
<path d="M387.532 217.04V215.878H390.164V226H388.876V217.04H387.532ZM392.044 223.746V222.78L396.958 215.976H398.484V222.64H399.884V223.746H398.484V226H397.224V223.746H392.044ZM397.28 217.306L393.514 222.64H397.28V217.306ZM410.867 223.83H406.611L405.827 226H404.483L408.011 216.298H409.481L412.995 226H411.651L410.867 223.83ZM410.503 222.794L408.739 217.866L406.975 222.794H410.503ZM417.697 218.202C418.36 218.202 418.938 218.347 419.433 218.636C419.937 218.925 420.31 219.289 420.553 219.728V218.328H421.841V226.168C421.841 226.868 421.692 227.489 421.393 228.03C421.094 228.581 420.665 229.01 420.105 229.318C419.554 229.626 418.91 229.78 418.173 229.78C417.165 229.78 416.325 229.542 415.653 229.066C414.981 228.59 414.584 227.941 414.463 227.12H415.723C415.863 227.587 416.152 227.96 416.591 228.24C417.03 228.529 417.557 228.674 418.173 228.674C418.873 228.674 419.442 228.455 419.881 228.016C420.329 227.577 420.553 226.961 420.553 226.168V224.558C420.301 225.006 419.928 225.379 419.433 225.678C418.938 225.977 418.36 226.126 417.697 226.126C417.016 226.126 416.395 225.958 415.835 225.622C415.284 225.286 414.85 224.815 414.533 224.208C414.216 223.601 414.057 222.911 414.057 222.136C414.057 221.352 414.216 220.666 414.533 220.078C414.85 219.481 415.284 219.019 415.835 218.692C416.395 218.365 417.016 218.202 417.697 218.202ZM420.553 222.15C420.553 221.571 420.436 221.067 420.203 220.638C419.97 220.209 419.652 219.882 419.251 219.658C418.859 219.425 418.425 219.308 417.949 219.308C417.473 219.308 417.039 219.42 416.647 219.644C416.255 219.868 415.942 220.195 415.709 220.624C415.476 221.053 415.359 221.557 415.359 222.136C415.359 222.724 415.476 223.237 415.709 223.676C415.942 224.105 416.255 224.437 416.647 224.67C417.039 224.894 417.473 225.006 417.949 225.006C418.425 225.006 418.859 224.894 419.251 224.67C419.652 224.437 419.97 224.105 420.203 223.676C420.436 223.237 420.553 222.729 420.553 222.15ZM427.34 226.126C426.621 226.126 425.968 225.963 425.38 225.636C424.801 225.309 424.344 224.847 424.008 224.25C423.681 223.643 423.518 222.943 423.518 222.15C423.518 221.366 423.686 220.675 424.022 220.078C424.367 219.471 424.834 219.009 425.422 218.692C426.01 218.365 426.668 218.202 427.396 218.202C428.124 218.202 428.782 218.365 429.37 218.692C429.958 219.009 430.42 219.467 430.756 220.064C431.101 220.661 431.274 221.357 431.274 222.15C431.274 222.943 431.097 223.643 430.742 224.25C430.397 224.847 429.925 225.309 429.328 225.636C428.731 225.963 428.068 226.126 427.34 226.126ZM427.34 225.006C427.797 225.006 428.227 224.899 428.628 224.684C429.029 224.469 429.351 224.147 429.594 223.718C429.846 223.289 429.972 222.766 429.972 222.15C429.972 221.534 429.851 221.011 429.608 220.582C429.365 220.153 429.048 219.835 428.656 219.63C428.264 219.415 427.839 219.308 427.382 219.308C426.915 219.308 426.486 219.415 426.094 219.63C425.711 219.835 425.403 220.153 425.17 220.582C424.937 221.011 424.82 221.534 424.82 222.15C424.82 222.775 424.932 223.303 425.156 223.732C425.389 224.161 425.697 224.483 426.08 224.698C426.463 224.903 426.883 225.006 427.34 225.006Z" fill="#3D94EF"/>
<path d="M457.532 217.04V215.878H460.164V226H458.876V217.04H457.532ZM468.806 216.984H463.892V220.176C464.107 219.877 464.424 219.635 464.844 219.448C465.264 219.252 465.717 219.154 466.202 219.154C466.977 219.154 467.607 219.317 468.092 219.644C468.578 219.961 468.923 220.377 469.128 220.89C469.343 221.394 469.45 221.931 469.45 222.5C469.45 223.172 469.324 223.774 469.072 224.306C468.82 224.838 468.433 225.258 467.91 225.566C467.397 225.874 466.758 226.028 465.992 226.028C465.012 226.028 464.219 225.776 463.612 225.272C463.006 224.768 462.637 224.096 462.506 223.256H463.752C463.874 223.788 464.13 224.203 464.522 224.502C464.914 224.801 465.409 224.95 466.006 224.95C466.744 224.95 467.299 224.731 467.672 224.292C468.046 223.844 468.232 223.256 468.232 222.528C468.232 221.8 468.046 221.24 467.672 220.848C467.299 220.447 466.748 220.246 466.02 220.246C465.526 220.246 465.092 220.367 464.718 220.61C464.354 220.843 464.088 221.165 463.92 221.576H462.716V215.864H468.806V216.984ZM480.854 223.83H476.598L475.814 226H474.47L477.998 216.298H479.468L482.982 226H481.638L480.854 223.83ZM480.49 222.794L478.726 217.866L476.962 222.794H480.49ZM487.683 218.202C488.346 218.202 488.925 218.347 489.419 218.636C489.923 218.925 490.297 219.289 490.539 219.728V218.328H491.827V226.168C491.827 226.868 491.678 227.489 491.379 228.03C491.081 228.581 490.651 229.01 490.091 229.318C489.541 229.626 488.897 229.78 488.159 229.78C487.151 229.78 486.311 229.542 485.639 229.066C484.967 228.59 484.571 227.941 484.449 227.12H485.709C485.849 227.587 486.139 227.96 486.577 228.24C487.016 228.529 487.543 228.674 488.159 228.674C488.859 228.674 489.429 228.455 489.867 228.016C490.315 227.577 490.539 226.961 490.539 226.168V224.558C490.287 225.006 489.914 225.379 489.419 225.678C488.925 225.977 488.346 226.126 487.683 226.126C487.002 226.126 486.381 225.958 485.821 225.622C485.271 225.286 484.837 224.815 484.519 224.208C484.202 223.601 484.043 222.911 484.043 222.136C484.043 221.352 484.202 220.666 484.519 220.078C484.837 219.481 485.271 219.019 485.821 218.692C486.381 218.365 487.002 218.202 487.683 218.202ZM490.539 222.15C490.539 221.571 490.423 221.067 490.189 220.638C489.956 220.209 489.639 219.882 489.237 219.658C488.845 219.425 488.411 219.308 487.935 219.308C487.459 219.308 487.025 219.42 486.633 219.644C486.241 219.868 485.929 220.195 485.695 220.624C485.462 221.053 485.345 221.557 485.345 222.136C485.345 222.724 485.462 223.237 485.695 223.676C485.929 224.105 486.241 224.437 486.633 224.67C487.025 224.894 487.459 225.006 487.935 225.006C488.411 225.006 488.845 224.894 489.237 224.67C489.639 224.437 489.956 224.105 490.189 223.676C490.423 223.237 490.539 222.729 490.539 222.15ZM497.326 226.126C496.608 226.126 495.954 225.963 495.366 225.636C494.788 225.309 494.33 224.847 493.994 224.25C493.668 223.643 493.504 222.943 493.504 222.15C493.504 221.366 493.672 220.675 494.008 220.078C494.354 219.471 494.82 219.009 495.408 218.692C495.996 218.365 496.654 218.202 497.382 218.202C498.11 218.202 498.768 218.365 499.356 218.692C499.944 219.009 500.406 219.467 500.742 220.064C501.088 220.661 501.26 221.357 501.26 222.15C501.26 222.943 501.083 223.643 500.728 224.25C500.383 224.847 499.912 225.309 499.314 225.636C498.717 225.963 498.054 226.126 497.326 226.126ZM497.326 225.006C497.784 225.006 498.213 224.899 498.614 224.684C499.016 224.469 499.338 224.147 499.58 223.718C499.832 223.289 499.958 222.766 499.958 222.15C499.958 221.534 499.837 221.011 499.594 220.582C499.352 220.153 499.034 219.835 498.642 219.63C498.25 219.415 497.826 219.308 497.368 219.308C496.902 219.308 496.472 219.415 496.08 219.63C495.698 219.835 495.39 220.153 495.156 220.582C494.923 221.011 494.806 221.534 494.806 222.15C494.806 222.775 494.918 223.303 495.142 223.732C495.376 224.161 495.684 224.483 496.066 224.698C496.449 224.903 496.869 225.006 497.326 225.006Z" fill="#3D94EF"/>
<path d="M113.532 217.04V215.878H116.164V226H114.876V217.04H113.532ZM118.352 220.834C118.352 219.229 118.614 217.978 119.136 217.082C119.659 216.177 120.574 215.724 121.88 215.724C123.178 215.724 124.088 216.177 124.61 217.082C125.133 217.978 125.394 219.229 125.394 220.834C125.394 222.467 125.133 223.737 124.61 224.642C124.088 225.547 123.178 226 121.88 226C120.574 226 119.659 225.547 119.136 224.642C118.614 223.737 118.352 222.467 118.352 220.834ZM124.134 220.834C124.134 220.022 124.078 219.336 123.966 218.776C123.864 218.207 123.644 217.749 123.308 217.404C122.982 217.059 122.506 216.886 121.88 216.886C121.246 216.886 120.76 217.059 120.424 217.404C120.098 217.749 119.878 218.207 119.766 218.776C119.664 219.336 119.612 220.022 119.612 220.834C119.612 221.674 119.664 222.379 119.766 222.948C119.878 223.517 120.098 223.975 120.424 224.32C120.76 224.665 121.246 224.838 121.88 224.838C122.506 224.838 122.982 224.665 123.308 224.32C123.644 223.975 123.864 223.517 123.966 222.948C124.078 222.379 124.134 221.674 124.134 220.834ZM136.854 223.83H132.598L131.814 226H130.47L133.998 216.298H135.468L138.982 226H137.638L136.854 223.83ZM136.49 222.794L134.726 217.866L132.962 222.794H136.49ZM143.683 218.202C144.346 218.202 144.925 218.347 145.419 218.636C145.923 218.925 146.297 219.289 146.539 219.728V218.328H147.827V226.168C147.827 226.868 147.678 227.489 147.379 228.03C147.081 228.581 146.651 229.01 146.091 229.318C145.541 229.626 144.897 229.78 144.159 229.78C143.151 229.78 142.311 229.542 141.639 229.066C140.967 228.59 140.571 227.941 140.449 227.12H141.709C141.849 227.587 142.139 227.96 142.577 228.24C143.016 228.529 143.543 228.674 144.159 228.674C144.859 228.674 145.429 228.455 145.867 228.016C146.315 227.577 146.539 226.961 146.539 226.168V224.558C146.287 225.006 145.914 225.379 145.419 225.678C144.925 225.977 144.346 226.126 143.683 226.126C143.002 226.126 142.381 225.958 141.821 225.622C141.271 225.286 140.837 224.815 140.519 224.208C140.202 223.601 140.043 222.911 140.043 222.136C140.043 221.352 140.202 220.666 140.519 220.078C140.837 219.481 141.271 219.019 141.821 218.692C142.381 218.365 143.002 218.202 143.683 218.202ZM146.539 222.15C146.539 221.571 146.423 221.067 146.189 220.638C145.956 220.209 145.639 219.882 145.237 219.658C144.845 219.425 144.411 219.308 143.935 219.308C143.459 219.308 143.025 219.42 142.633 219.644C142.241 219.868 141.929 220.195 141.695 220.624C141.462 221.053 141.345 221.557 141.345 222.136C141.345 222.724 141.462 223.237 141.695 223.676C141.929 224.105 142.241 224.437 142.633 224.67C143.025 224.894 143.459 225.006 143.935 225.006C144.411 225.006 144.845 224.894 145.237 224.67C145.639 224.437 145.956 224.105 146.189 223.676C146.423 223.237 146.539 222.729 146.539 222.15ZM153.326 226.126C152.608 226.126 151.954 225.963 151.366 225.636C150.788 225.309 150.33 224.847 149.994 224.25C149.668 223.643 149.504 222.943 149.504 222.15C149.504 221.366 149.672 220.675 150.008 220.078C150.354 219.471 150.82 219.009 151.408 218.692C151.996 218.365 152.654 218.202 153.382 218.202C154.11 218.202 154.768 218.365 155.356 218.692C155.944 219.009 156.406 219.467 156.742 220.064C157.088 220.661 157.26 221.357 157.26 222.15C157.26 222.943 157.083 223.643 156.728 224.25C156.383 224.847 155.912 225.309 155.314 225.636C154.717 225.963 154.054 226.126 153.326 226.126ZM153.326 225.006C153.784 225.006 154.213 224.899 154.614 224.684C155.016 224.469 155.338 224.147 155.58 223.718C155.832 223.289 155.958 222.766 155.958 222.15C155.958 221.534 155.837 221.011 155.594 220.582C155.352 220.153 155.034 219.835 154.642 219.63C154.25 219.415 153.826 219.308 153.368 219.308C152.902 219.308 152.472 219.415 152.08 219.63C151.698 219.835 151.39 220.153 151.156 220.582C150.923 221.011 150.806 221.534 150.806 222.15C150.806 222.775 150.918 223.303 151.142 223.732C151.376 224.161 151.684 224.483 152.066 224.698C152.449 224.903 152.869 225.006 153.326 225.006Z" fill="#3D94EF"/>
<path d="M250.532 217.04V215.878H253.164V226H251.876V217.04H250.532ZM255.198 224.978C256.384 224.026 257.312 223.247 257.984 222.64C258.656 222.024 259.221 221.385 259.678 220.722C260.145 220.05 260.378 219.392 260.378 218.748C260.378 218.141 260.229 217.665 259.93 217.32C259.641 216.965 259.17 216.788 258.516 216.788C257.882 216.788 257.387 216.989 257.032 217.39C256.687 217.782 256.5 218.309 256.472 218.972H255.24C255.278 217.927 255.595 217.119 256.192 216.55C256.79 215.981 257.56 215.696 258.502 215.696C259.464 215.696 260.224 215.962 260.784 216.494C261.354 217.026 261.638 217.759 261.638 218.692C261.638 219.467 261.405 220.223 260.938 220.96C260.481 221.688 259.958 222.332 259.37 222.892C258.782 223.443 258.031 224.087 257.116 224.824H261.932V225.888H255.198V224.978ZM273.116 223.83H268.86L268.076 226H266.732L270.26 216.298H271.73L275.244 226H273.9L273.116 223.83ZM272.752 222.794L270.988 217.866L269.224 222.794H272.752ZM279.945 218.202C280.608 218.202 281.186 218.347 281.681 218.636C282.185 218.925 282.558 219.289 282.801 219.728V218.328H284.089V226.168C284.089 226.868 283.94 227.489 283.641 228.03C283.342 228.581 282.913 229.01 282.353 229.318C281.802 229.626 281.158 229.78 280.421 229.78C279.413 229.78 278.573 229.542 277.901 229.066C277.229 228.59 276.832 227.941 276.711 227.12H277.971C278.111 227.587 278.4 227.96 278.839 228.24C279.278 228.529 279.805 228.674 280.421 228.674C281.121 228.674 281.69 228.455 282.129 228.016C282.577 227.577 282.801 226.961 282.801 226.168V224.558C282.549 225.006 282.176 225.379 281.681 225.678C281.186 225.977 280.608 226.126 279.945 226.126C279.264 226.126 278.643 225.958 278.083 225.622C277.532 225.286 277.098 224.815 276.781 224.208C276.464 223.601 276.305 222.911 276.305 222.136C276.305 221.352 276.464 220.666 276.781 220.078C277.098 219.481 277.532 219.019 278.083 218.692C278.643 218.365 279.264 218.202 279.945 218.202ZM282.801 222.15C282.801 221.571 282.684 221.067 282.451 220.638C282.218 220.209 281.9 219.882 281.499 219.658C281.107 219.425 280.673 219.308 280.197 219.308C279.721 219.308 279.287 219.42 278.895 219.644C278.503 219.868 278.19 220.195 277.957 220.624C277.724 221.053 277.607 221.557 277.607 222.136C277.607 222.724 277.724 223.237 277.957 223.676C278.19 224.105 278.503 224.437 278.895 224.67C279.287 224.894 279.721 225.006 280.197 225.006C280.673 225.006 281.107 224.894 281.499 224.67C281.9 224.437 282.218 224.105 282.451 223.676C282.684 223.237 282.801 222.729 282.801 222.15ZM289.588 226.126C288.869 226.126 288.216 225.963 287.628 225.636C287.049 225.309 286.592 224.847 286.256 224.25C285.929 223.643 285.766 222.943 285.766 222.15C285.766 221.366 285.934 220.675 286.27 220.078C286.615 219.471 287.082 219.009 287.67 218.692C288.258 218.365 288.916 218.202 289.644 218.202C290.372 218.202 291.03 218.365 291.618 218.692C292.206 219.009 292.668 219.467 293.004 220.064C293.349 220.661 293.522 221.357 293.522 222.15C293.522 222.943 293.345 223.643 292.99 224.25C292.645 224.847 292.173 225.309 291.576 225.636C290.979 225.963 290.316 226.126 289.588 226.126ZM289.588 225.006C290.045 225.006 290.475 224.899 290.876 224.684C291.277 224.469 291.599 224.147 291.842 223.718C292.094 223.289 292.22 222.766 292.22 222.15C292.22 221.534 292.099 221.011 291.856 220.582C291.613 220.153 291.296 219.835 290.904 219.63C290.512 219.415 290.087 219.308 289.63 219.308C289.163 219.308 288.734 219.415 288.342 219.63C287.959 219.835 287.651 220.153 287.418 220.582C287.185 221.011 287.068 221.534 287.068 222.15C287.068 222.775 287.18 223.303 287.404 223.732C287.637 224.161 287.945 224.483 288.328 224.698C288.711 224.903 289.131 225.006 289.588 225.006Z" fill="#3D94EF"/>
<path d="M184.532 217.04V215.878H187.164V226H185.876V217.04H184.532ZM189.016 217.04V215.878H191.648V226H190.36V217.04H189.016ZM203.547 223.83H199.291L198.507 226H197.163L200.691 216.298H202.161L205.675 226H204.331L203.547 223.83ZM203.183 222.794L201.419 217.866L199.655 222.794H203.183ZM210.377 218.202C211.039 218.202 211.618 218.347 212.113 218.636C212.617 218.925 212.99 219.289 213.233 219.728V218.328H214.521V226.168C214.521 226.868 214.371 227.489 214.073 228.03C213.774 228.581 213.345 229.01 212.785 229.318C212.234 229.626 211.59 229.78 210.853 229.78C209.845 229.78 209.005 229.542 208.333 229.066C207.661 228.59 207.264 227.941 207.143 227.12H208.403C208.543 227.587 208.832 227.96 209.271 228.24C209.709 228.529 210.237 228.674 210.853 228.674C211.553 228.674 212.122 228.455 212.561 228.016C213.009 227.577 213.233 226.961 213.233 226.168V224.558C212.981 225.006 212.607 225.379 212.113 225.678C211.618 225.977 211.039 226.126 210.377 226.126C209.695 226.126 209.075 225.958 208.515 225.622C207.964 225.286 207.53 224.815 207.213 224.208C206.895 223.601 206.737 222.911 206.737 222.136C206.737 221.352 206.895 220.666 207.213 220.078C207.53 219.481 207.964 219.019 208.515 218.692C209.075 218.365 209.695 218.202 210.377 218.202ZM213.233 222.15C213.233 221.571 213.116 221.067 212.883 220.638C212.649 220.209 212.332 219.882 211.931 219.658C211.539 219.425 211.105 219.308 210.629 219.308C210.153 219.308 209.719 219.42 209.327 219.644C208.935 219.868 208.622 220.195 208.389 220.624C208.155 221.053 208.039 221.557 208.039 222.136C208.039 222.724 208.155 223.237 208.389 223.676C208.622 224.105 208.935 224.437 209.327 224.67C209.719 224.894 210.153 225.006 210.629 225.006C211.105 225.006 211.539 224.894 211.931 224.67C212.332 224.437 212.649 224.105 212.883 223.676C213.116 223.237 213.233 222.729 213.233 222.15ZM220.02 226.126C219.301 226.126 218.648 225.963 218.06 225.636C217.481 225.309 217.024 224.847 216.688 224.25C216.361 223.643 216.198 222.943 216.198 222.15C216.198 221.366 216.366 220.675 216.702 220.078C217.047 219.471 217.514 219.009 218.102 218.692C218.69 218.365 219.348 218.202 220.076 218.202C220.804 218.202 221.462 218.365 222.05 218.692C222.638 219.009 223.1 219.467 223.436 220.064C223.781 220.661 223.954 221.357 223.954 222.15C223.954 222.943 223.776 223.643 223.422 224.25C223.076 224.847 222.605 225.309 222.008 225.636C221.41 225.963 220.748 226.126 220.02 226.126ZM220.02 225.006C220.477 225.006 220.906 224.899 221.308 224.684C221.709 224.469 222.031 224.147 222.274 223.718C222.526 223.289 222.652 222.766 222.652 222.15C222.652 221.534 222.53 221.011 222.288 220.582C222.045 220.153 221.728 219.835 221.336 219.63C220.944 219.415 220.519 219.308 220.062 219.308C219.595 219.308 219.166 219.415 218.774 219.63C218.391 219.835 218.083 220.153 217.85 220.582C217.616 221.011 217.5 221.534 217.5 222.15C217.5 222.775 217.612 223.303 217.836 223.732C218.069 224.161 218.377 224.483 218.76 224.698C219.142 224.903 219.562 225.006 220.02 225.006Z" fill="#3D94EF"/>
<line x1="341.5" y1="204" x2="341.5" y2="208" stroke="#3D94EF"/>
<line x1="409.5" y1="204" x2="409.5" y2="208" stroke="#3D94EF"/>
<line x1="479.5" y1="204" x2="479.5" y2="208" stroke="#3D94EF"/>
<line x1="272.5" y1="204" x2="272.5" y2="208" stroke="#3D94EF"/>
<line x1="204.5" y1="204" x2="204.5" y2="208" stroke="#3D94EF"/>
<line x1="67.0012" y1="203.5" x2="480.001" y2="204.5" stroke="#3D94EF"/>
<line x1="135.5" y1="204" x2="135.5" y2="208" stroke="#3D94EF"/>
<g filter="url(#filter0_d)">
<path d="M68 177C68 177 113 127.5 135 127.5C157 127.5 182.5 182.5 205.5 173.5C228.5 164.5 243.5 132 267.5 114C291.5 96 320.5 75.5 339 83C357.5 90.5 393.5 161.5 409 163C424.5 164.5 480.5 114 480.5 114" stroke="#2DD09E" stroke-width="2"/>
</g>
<defs>
<filter id="filter0_d" x="49.2607" y="76.4103" width="449.908" height="133.262" filterUnits="userSpaceOnUse" color-interpolation-filters="sRGB">
<feFlood flood-opacity="0" result="BackgroundImageFix"/>
<feColorMatrix in="SourceAlpha" type="matrix" values="0 0 0 0 0 0 0 0 0 0 0 0 0 0 0 0 0 0 127 0" result="hardAlpha"/>
<feOffset dy="14"/>
<feGaussianBlur stdDeviation="9"/>
<feComposite in2="hardAlpha" operator="out"/>
<feColorMatrix type="matrix" values="0 0 0 0 0.176471 0 0 0 0 0.815686 0 0 0 0 0.619608 0 0 0 1 0"/>
<feBlend mode="normal" in2="BackgroundImageFix" result="effect1_dropShadow"/>
<feBlend mode="normal" in="SourceGraphic" in2="effect1_dropShadow" result="shape"/>
</filter>
</defs>
</svg>
