<svg width="526" height="264" viewBox="0 0 526 264" fill="none" xmlns="http://www.w3.org/2000/svg">
<rect width="526" height="264" rx="16" fill="#0D2238"/>
<path d="M29.008 30.832C30.1813 30.832 31.2107 31.0613 32.096 31.52C32.992 31.9787 33.68 32.6347 34.16 33.488C34.6507 34.3307 34.896 35.312 34.896 36.432C34.896 37.552 34.6507 38.5333 34.16 39.376C33.68 40.208 32.992 40.8533 32.096 41.312C31.2107 41.7707 30.1813 42 29.008 42H25.104V30.832H29.008ZM28.928 40.096C30.1013 40.096 31.008 39.776 31.648 39.136C32.288 38.496 32.608 37.5947 32.608 36.432C32.608 35.2693 32.288 34.3627 31.648 33.712C31.008 33.0507 30.1013 32.72 28.928 32.72H27.344V40.096H28.928ZM40.5088 42.144C39.6554 42.144 38.8874 41.9573 38.2048 41.584C37.5221 41.2 36.9834 40.6613 36.5888 39.968C36.2048 39.2747 36.0128 38.4747 36.0128 37.568C36.0128 36.6613 36.2101 35.8613 36.6048 35.168C37.0101 34.4747 37.5594 33.9413 38.2528 33.568C38.9461 33.184 39.7194 32.992 40.5728 32.992C41.4261 32.992 42.1994 33.184 42.8928 33.568C43.5861 33.9413 44.1301 34.4747 44.5248 35.168C44.9301 35.8613 45.1328 36.6613 45.1328 37.568C45.1328 38.4747 44.9248 39.2747 44.5087 39.968C44.1034 40.6613 43.5488 41.2 42.8448 41.584C42.1514 41.9573 41.3728 42.144 40.5088 42.144ZM40.5088 40.192C40.9141 40.192 41.2928 40.096 41.6448 39.904C42.0074 39.7013 42.2954 39.4027 42.5088 39.008C42.7221 38.6133 42.8288 38.1333 42.8288 37.568C42.8288 36.7253 42.6048 36.08 42.1568 35.632C41.7194 35.1733 41.1808 34.944 40.5408 34.944C39.9008 34.944 39.3621 35.1733 38.9248 35.632C38.4981 36.08 38.2848 36.7253 38.2848 37.568C38.2848 38.4107 38.4928 39.0613 38.9088 39.52C39.3354 39.968 39.8688 40.192 40.5088 40.192ZM46.1999 37.568C46.1999 36.6507 46.3865 35.8507 46.7599 35.168C47.1332 34.4747 47.6505 33.9413 48.3119 33.568C48.9732 33.184 49.7305 32.992 50.5839 32.992C51.6825 32.992 52.5892 33.2693 53.3039 33.824C54.0292 34.368 54.5145 35.136 54.7599 36.128H52.3439C52.2159 35.744 51.9972 35.4453 51.6879 35.232C51.3892 35.008 51.0159 34.896 50.5679 34.896C49.9279 34.896 49.4212 35.1307 49.0479 35.6C48.6745 36.0587 48.4879 36.7147 48.4879 37.568C48.4879 38.4107 48.6745 39.0667 49.0479 39.536C49.4212 39.9947 49.9279 40.224 50.5679 40.224C51.4745 40.224 52.0665 39.8187 52.3439 39.008H54.7599C54.5145 39.968 54.0292 40.7307 53.3039 41.296C52.5785 41.8613 51.6719 42.144 50.5839 42.144C49.7305 42.144 48.9732 41.9573 48.3119 41.584C47.6505 41.2 47.1332 40.6667 46.7599 39.984C46.3865 39.2907 46.1999 38.4853 46.1999 37.568ZM64.7689 33.136V42H62.5129V40.88C62.2249 41.264 61.8462 41.568 61.3769 41.792C60.9182 42.0053 60.4169 42.112 59.8729 42.112C59.1795 42.112 58.5662 41.968 58.0329 41.68C57.4995 41.3813 57.0782 40.9493 56.7689 40.384C56.4702 39.808 56.3209 39.1253 56.3209 38.336V33.136H58.5609V38.016C58.5609 38.72 58.7369 39.264 59.0889 39.648C59.4409 40.0213 59.9209 40.208 60.5289 40.208C61.1475 40.208 61.6329 40.0213 61.9849 39.648C62.3369 39.264 62.5129 38.72 62.5129 38.016V33.136H64.7689ZM77.987 33.008C79.075 33.008 79.9497 33.344 80.611 34.016C81.283 34.6773 81.619 35.6053 81.619 36.8V42H79.379V37.104C79.379 36.4107 79.203 35.8827 78.851 35.52C78.499 35.1467 78.019 34.96 77.411 34.96C76.803 34.96 76.3177 35.1467 75.955 35.52C75.603 35.8827 75.427 36.4107 75.427 37.104V42H73.187V37.104C73.187 36.4107 73.011 35.8827 72.659 35.52C72.307 35.1467 71.827 34.96 71.219 34.96C70.6003 34.96 70.1097 35.1467 69.747 35.52C69.395 35.8827 69.219 36.4107 69.219 37.104V42H66.979V33.136H69.219V34.208C69.507 33.8347 69.875 33.5413 70.323 33.328C70.7817 33.1147 71.283 33.008 71.827 33.008C72.5203 33.008 73.139 33.1573 73.683 33.456C74.227 33.744 74.6483 34.16 74.947 34.704C75.235 34.192 75.651 33.7813 76.195 33.472C76.7497 33.1627 77.347 33.008 77.987 33.008ZM91.9846 37.376C91.9846 37.696 91.9633 37.984 91.9206 38.24H85.4406C85.494 38.88 85.718 39.3813 86.1126 39.744C86.5073 40.1067 86.9926 40.288 87.5686 40.288C88.4006 40.288 88.9926 39.9307 89.3446 39.216H91.7606C91.5046 40.0693 91.014 40.7733 90.2886 41.328C89.5633 41.872 88.6726 42.144 87.6166 42.144C86.7633 42.144 85.9953 41.9573 85.3126 41.584C84.6406 41.2 84.1126 40.6613 83.7286 39.968C83.3553 39.2747 83.1686 38.4747 83.1686 37.568C83.1686 36.6507 83.3553 35.8453 83.7286 35.152C84.102 34.4587 84.6246 33.9253 85.2966 33.552C85.9686 33.1787 86.742 32.992 87.6166 32.992C88.4593 32.992 89.2113 33.1733 89.8726 33.536C90.5446 33.8987 91.062 34.416 91.4246 35.088C91.798 35.7493 91.9846 36.512 91.9846 37.376ZM89.6646 36.736C89.654 36.16 89.446 35.7013 89.0406 35.36C88.6353 35.008 88.1393 34.832 87.5526 34.832C86.998 34.832 86.5286 35.0027 86.1446 35.344C85.7713 35.6747 85.542 36.1387 85.4566 36.736H89.6646ZM98.5316 33.008C99.5876 33.008 100.441 33.344 101.092 34.016C101.742 34.6773 102.068 35.6053 102.068 36.8V42H99.8276V37.104C99.8276 36.4 99.6516 35.8613 99.2996 35.488C98.9476 35.104 98.4676 34.912 97.8596 34.912C97.241 34.912 96.7503 35.104 96.3876 35.488C96.0356 35.8613 95.8596 36.4 95.8596 37.104V42H93.6196V33.136H95.8596V34.24C96.1583 33.856 96.537 33.5573 96.9956 33.344C97.465 33.12 97.977 33.008 98.5316 33.008ZM106.806 34.976V39.264C106.806 39.5627 106.875 39.7813 107.014 39.92C107.163 40.048 107.408 40.112 107.75 40.112H108.79V42H107.382C105.494 42 104.55 41.0827 104.55 39.248V34.976H103.494V33.136H104.55V30.944H106.806V33.136H108.79V34.976H106.806ZM114.337 42.144C113.484 42.144 112.716 41.9573 112.033 41.584C111.35 41.2 110.812 40.6613 110.417 39.968C110.033 39.2747 109.841 38.4747 109.841 37.568C109.841 36.6613 110.038 35.8613 110.433 35.168C110.838 34.4747 111.388 33.9413 112.081 33.568C112.774 33.184 113.548 32.992 114.401 32.992C115.254 32.992 116.028 33.184 116.721 33.568C117.414 33.9413 117.958 34.4747 118.353 35.168C118.758 35.8613 118.961 36.6613 118.961 37.568C118.961 38.4747 118.753 39.2747 118.337 39.968C117.932 40.6613 117.377 41.2 116.673 41.584C115.98 41.9573 115.201 42.144 114.337 42.144ZM114.337 40.192C114.742 40.192 115.121 40.096 115.473 39.904C115.836 39.7013 116.124 39.4027 116.337 39.008C116.55 38.6133 116.657 38.1333 116.657 37.568C116.657 36.7253 116.433 36.08 115.985 35.632C115.548 35.1733 115.009 34.944 114.369 34.944C113.729 34.944 113.19 35.1733 112.753 35.632C112.326 36.08 112.113 36.7253 112.113 37.568C112.113 38.4107 112.321 39.0613 112.737 39.52C113.164 39.968 113.697 40.192 114.337 40.192ZM123.996 42.144C123.271 42.144 122.62 42.016 122.044 41.76C121.468 41.4933 121.009 41.136 120.668 40.688C120.337 40.24 120.156 39.744 120.124 39.2H122.38C122.423 39.5413 122.588 39.824 122.876 40.048C123.175 40.272 123.543 40.384 123.98 40.384C124.407 40.384 124.737 40.2987 124.972 40.128C125.217 39.9573 125.34 39.7387 125.34 39.472C125.34 39.184 125.191 38.9707 124.892 38.832C124.604 38.6827 124.14 38.5227 123.5 38.352C122.839 38.192 122.295 38.0267 121.868 37.856C121.452 37.6853 121.089 37.424 120.78 37.072C120.481 36.72 120.332 36.2453 120.332 35.648C120.332 35.1573 120.471 34.7093 120.748 34.304C121.036 33.8987 121.441 33.5787 121.964 33.344C122.497 33.1093 123.121 32.992 123.836 32.992C124.892 32.992 125.735 33.2587 126.364 33.792C126.993 34.3147 127.34 35.024 127.404 35.92H125.26C125.228 35.568 125.079 35.2907 124.812 35.088C124.556 34.8747 124.209 34.768 123.772 34.768C123.367 34.768 123.052 34.8427 122.828 34.992C122.615 35.1413 122.508 35.3493 122.508 35.616C122.508 35.9147 122.657 36.144 122.956 36.304C123.255 36.4533 123.719 36.608 124.348 36.768C124.988 36.928 125.516 37.0933 125.932 37.264C126.348 37.4347 126.705 37.7013 127.004 38.064C127.313 38.416 127.473 38.8853 127.484 39.472C127.484 39.984 127.34 40.4427 127.052 40.848C126.775 41.2533 126.369 41.5733 125.836 41.808C125.313 42.032 124.7 42.144 123.996 42.144ZM132.559 37.536C132.559 36.64 132.735 35.8453 133.087 35.152C133.45 34.4587 133.935 33.9253 134.543 33.552C135.162 33.1787 135.85 32.992 136.607 32.992C137.269 32.992 137.845 33.1253 138.335 33.392C138.837 33.6587 139.237 33.9947 139.535 34.4V33.136H141.791V42H139.535V40.704C139.247 41.12 138.847 41.4667 138.335 41.744C137.834 42.0107 137.253 42.144 136.591 42.144C135.845 42.144 135.162 41.952 134.543 41.568C133.935 41.184 133.45 40.6453 133.087 39.952C132.735 39.248 132.559 38.4427 132.559 37.536ZM139.535 37.568C139.535 37.024 139.429 36.56 139.215 36.176C139.002 35.7813 138.714 35.4827 138.351 35.28C137.989 35.0667 137.599 34.96 137.183 34.96C136.767 34.96 136.383 35.0613 136.031 35.264C135.679 35.4667 135.391 35.7653 135.167 36.16C134.954 36.544 134.847 37.0027 134.847 37.536C134.847 38.0693 134.954 38.5387 135.167 38.944C135.391 39.3387 135.679 39.6427 136.031 39.856C136.394 40.0693 136.778 40.176 137.183 40.176C137.599 40.176 137.989 40.0747 138.351 39.872C138.714 39.6587 139.002 39.36 139.215 38.976C139.429 38.5813 139.535 38.112 139.535 37.568ZM143.403 37.536C143.403 36.64 143.579 35.8453 143.931 35.152C144.294 34.4587 144.784 33.9253 145.403 33.552C146.022 33.1787 146.71 32.992 147.467 32.992C148.043 32.992 148.592 33.12 149.115 33.376C149.638 33.6213 150.054 33.952 150.363 34.368V30.16H152.635V42H150.363V40.688C150.086 41.1253 149.696 41.4773 149.195 41.744C148.694 42.0107 148.112 42.144 147.451 42.144C146.704 42.144 146.022 41.952 145.403 41.568C144.784 41.184 144.294 40.6453 143.931 39.952C143.579 39.248 143.403 38.4427 143.403 37.536ZM150.379 37.568C150.379 37.024 150.272 36.56 150.059 36.176C149.846 35.7813 149.558 35.4827 149.195 35.28C148.832 35.0667 148.443 34.96 148.027 34.96C147.611 34.96 147.227 35.0613 146.875 35.264C146.523 35.4667 146.235 35.7653 146.011 36.16C145.798 36.544 145.691 37.0027 145.691 37.536C145.691 38.0693 145.798 38.5387 146.011 38.944C146.235 39.3387 146.523 39.6427 146.875 39.856C147.238 40.0693 147.622 40.176 148.027 40.176C148.443 40.176 148.832 40.0747 149.195 39.872C149.558 39.6587 149.846 39.36 150.059 38.976C150.272 38.5813 150.379 38.112 150.379 37.568ZM155.959 32.08C155.564 32.08 155.233 31.9573 154.967 31.712C154.711 31.456 154.583 31.1413 154.583 30.768C154.583 30.3947 154.711 30.0853 154.967 29.84C155.233 29.584 155.564 29.456 155.959 29.456C156.353 29.456 156.679 29.584 156.935 29.84C157.201 30.0853 157.335 30.3947 157.335 30.768C157.335 31.1413 157.201 31.456 156.935 31.712C156.679 31.9573 156.353 32.08 155.959 32.08ZM157.063 33.136V42H154.823V33.136H157.063ZM158.7 37.568C158.7 36.6507 158.887 35.8507 159.26 35.168C159.633 34.4747 160.151 33.9413 160.812 33.568C161.473 33.184 162.231 32.992 163.084 32.992C164.183 32.992 165.089 33.2693 165.804 33.824C166.529 34.368 167.015 35.136 167.26 36.128H164.844C164.716 35.744 164.497 35.4453 164.188 35.232C163.889 35.008 163.516 34.896 163.068 34.896C162.428 34.896 161.921 35.1307 161.548 35.6C161.175 36.0587 160.988 36.7147 160.988 37.568C160.988 38.4107 161.175 39.0667 161.548 39.536C161.921 39.9947 162.428 40.224 163.068 40.224C163.975 40.224 164.567 39.8187 164.844 39.008H167.26C167.015 39.968 166.529 40.7307 165.804 41.296C165.079 41.8613 164.172 42.144 163.084 42.144C162.231 42.144 161.473 41.9573 160.812 41.584C160.151 41.2 159.633 40.6667 159.26 39.984C158.887 39.2907 158.7 38.4853 158.7 37.568ZM170.037 32.08C169.642 32.08 169.312 31.9573 169.045 31.712C168.789 31.456 168.661 31.1413 168.661 30.768C168.661 30.3947 168.789 30.0853 169.045 29.84C169.312 29.584 169.642 29.456 170.037 29.456C170.432 29.456 170.757 29.584 171.013 29.84C171.28 30.0853 171.413 30.3947 171.413 30.768C171.413 31.1413 171.28 31.456 171.013 31.712C170.757 31.9573 170.432 32.08 170.037 32.08ZM171.141 33.136V42H168.901V33.136H171.141ZM177.29 42.144C176.437 42.144 175.669 41.9573 174.986 41.584C174.303 41.2 173.765 40.6613 173.37 39.968C172.986 39.2747 172.794 38.4747 172.794 37.568C172.794 36.6613 172.991 35.8613 173.386 35.168C173.791 34.4747 174.341 33.9413 175.034 33.568C175.727 33.184 176.501 32.992 177.354 32.992C178.207 32.992 178.981 33.184 179.674 33.568C180.367 33.9413 180.911 34.4747 181.306 35.168C181.711 35.8613 181.914 36.6613 181.914 37.568C181.914 38.4747 181.706 39.2747 181.29 39.968C180.885 40.6613 180.33 41.2 179.626 41.584C178.933 41.9573 178.154 42.144 177.29 42.144ZM177.29 40.192C177.695 40.192 178.074 40.096 178.426 39.904C178.789 39.7013 179.077 39.4027 179.29 39.008C179.503 38.6133 179.61 38.1333 179.61 37.568C179.61 36.7253 179.386 36.08 178.938 35.632C178.501 35.1733 177.962 34.944 177.322 34.944C176.682 34.944 176.143 35.1733 175.706 35.632C175.279 36.08 175.066 36.7253 175.066 37.568C175.066 38.4107 175.274 39.0613 175.69 39.52C176.117 39.968 176.65 40.192 177.29 40.192ZM188.469 33.008C189.525 33.008 190.378 33.344 191.029 34.016C191.68 34.6773 192.005 35.6053 192.005 36.8V42H189.765V37.104C189.765 36.4 189.589 35.8613 189.237 35.488C188.885 35.104 188.405 34.912 187.797 34.912C187.178 34.912 186.688 35.104 186.325 35.488C185.973 35.8613 185.797 36.4 185.797 37.104V42H183.557V33.136H185.797V34.24C186.096 33.856 186.474 33.5573 186.933 33.344C187.402 33.12 187.914 33.008 188.469 33.008ZM193.559 37.536C193.559 36.64 193.735 35.8453 194.087 35.152C194.45 34.4587 194.935 33.9253 195.543 33.552C196.162 33.1787 196.85 32.992 197.607 32.992C198.269 32.992 198.845 33.1253 199.335 33.392C199.837 33.6587 200.237 33.9947 200.535 34.4V33.136H202.791V42H200.535V40.704C200.247 41.12 199.847 41.4667 199.335 41.744C198.834 42.0107 198.253 42.144 197.591 42.144C196.845 42.144 196.162 41.952 195.543 41.568C194.935 41.184 194.45 40.6453 194.087 39.952C193.735 39.248 193.559 38.4427 193.559 37.536ZM200.535 37.568C200.535 37.024 200.429 36.56 200.215 36.176C200.002 35.7813 199.714 35.4827 199.351 35.28C198.989 35.0667 198.599 34.96 198.183 34.96C197.767 34.96 197.383 35.0613 197.031 35.264C196.679 35.4667 196.391 35.7653 196.167 36.16C195.954 36.544 195.847 37.0027 195.847 37.536C195.847 38.0693 195.954 38.5387 196.167 38.944C196.391 39.3387 196.679 39.6427 197.031 39.856C197.394 40.0693 197.778 40.176 198.183 40.176C198.599 40.176 198.989 40.0747 199.351 39.872C199.714 39.6587 200.002 39.36 200.215 38.976C200.429 38.5813 200.535 38.112 200.535 37.568ZM204.403 37.536C204.403 36.64 204.579 35.8453 204.931 35.152C205.294 34.4587 205.784 33.9253 206.403 33.552C207.022 33.1787 207.71 32.992 208.467 32.992C209.043 32.992 209.592 33.12 210.115 33.376C210.638 33.6213 211.054 33.952 211.363 34.368V30.16H213.635V42H211.363V40.688C211.086 41.1253 210.696 41.4773 210.195 41.744C209.694 42.0107 209.112 42.144 208.451 42.144C207.704 42.144 207.022 41.952 206.403 41.568C205.784 41.184 205.294 40.6453 204.931 39.952C204.579 39.248 204.403 38.4427 204.403 37.536ZM211.379 37.568C211.379 37.024 211.272 36.56 211.059 36.176C210.846 35.7813 210.558 35.4827 210.195 35.28C209.832 35.0667 209.443 34.96 209.027 34.96C208.611 34.96 208.227 35.0613 207.875 35.264C207.523 35.4667 207.235 35.7653 207.011 36.16C206.798 36.544 206.691 37.0027 206.691 37.536C206.691 38.0693 206.798 38.5387 207.011 38.944C207.235 39.3387 207.523 39.6427 207.875 39.856C208.238 40.0693 208.622 40.176 209.027 40.176C209.443 40.176 209.832 40.0747 210.195 39.872C210.558 39.6587 210.846 39.36 211.059 38.976C211.272 38.5813 211.379 38.112 211.379 37.568ZM219.759 42.144C218.905 42.144 218.137 41.9573 217.455 41.584C216.772 41.2 216.233 40.6613 215.839 39.968C215.455 39.2747 215.263 38.4747 215.263 37.568C215.263 36.6613 215.46 35.8613 215.855 35.168C216.26 34.4747 216.809 33.9413 217.503 33.568C218.196 33.184 218.969 32.992 219.823 32.992C220.676 32.992 221.449 33.184 222.143 33.568C222.836 33.9413 223.38 34.4747 223.775 35.168C224.18 35.8613 224.383 36.6613 224.383 37.568C224.383 38.4747 224.175 39.2747 223.759 39.968C223.353 40.6613 222.799 41.2 222.095 41.584C221.401 41.9573 220.623 42.144 219.759 42.144ZM219.759 40.192C220.164 40.192 220.543 40.096 220.895 39.904C221.257 39.7013 221.545 39.4027 221.759 39.008C221.972 38.6133 222.079 38.1333 222.079 37.568C222.079 36.7253 221.855 36.08 221.407 35.632C220.969 35.1733 220.431 34.944 219.791 34.944C219.151 34.944 218.612 35.1733 218.175 35.632C217.748 36.08 217.535 36.7253 217.535 37.568C217.535 38.4107 217.743 39.0613 218.159 39.52C218.585 39.968 219.119 40.192 219.759 40.192ZM229.418 42.144C228.693 42.144 228.042 42.016 227.466 41.76C226.89 41.4933 226.431 41.136 226.09 40.688C225.759 40.24 225.578 39.744 225.546 39.2H227.802C227.845 39.5413 228.01 39.824 228.298 40.048C228.597 40.272 228.965 40.384 229.402 40.384C229.829 40.384 230.159 40.2987 230.394 40.128C230.639 39.9573 230.762 39.7387 230.762 39.472C230.762 39.184 230.613 38.9707 230.314 38.832C230.026 38.6827 229.562 38.5227 228.922 38.352C228.261 38.192 227.717 38.0267 227.29 37.856C226.874 37.6853 226.511 37.424 226.202 37.072C225.903 36.72 225.754 36.2453 225.754 35.648C225.754 35.1573 225.893 34.7093 226.17 34.304C226.458 33.8987 226.863 33.5787 227.386 33.344C227.919 33.1093 228.543 32.992 229.258 32.992C230.314 32.992 231.157 33.2587 231.786 33.792C232.415 34.3147 232.762 35.024 232.826 35.92H230.682C230.65 35.568 230.501 35.2907 230.234 35.088C229.978 34.8747 229.631 34.768 229.194 34.768C228.789 34.768 228.474 34.8427 228.25 34.992C228.037 35.1413 227.93 35.3493 227.93 35.616C227.93 35.9147 228.079 36.144 228.378 36.304C228.677 36.4533 229.141 36.608 229.77 36.768C230.41 36.928 230.938 37.0933 231.354 37.264C231.77 37.4347 232.127 37.7013 232.426 38.064C232.735 38.416 232.895 38.8853 232.906 39.472C232.906 39.984 232.762 40.4427 232.474 40.848C232.197 41.2533 231.791 41.5733 231.258 41.808C230.735 42.032 230.122 42.144 229.418 42.144ZM241.949 42.144C241.224 42.144 240.573 42.016 239.997 41.76C239.421 41.4933 238.962 41.136 238.621 40.688C238.29 40.24 238.109 39.744 238.077 39.2H240.333C240.376 39.5413 240.541 39.824 240.829 40.048C241.128 40.272 241.496 40.384 241.933 40.384C242.36 40.384 242.69 40.2987 242.925 40.128C243.17 39.9573 243.293 39.7387 243.293 39.472C243.293 39.184 243.144 38.9707 242.845 38.832C242.557 38.6827 242.093 38.5227 241.453 38.352C240.792 38.192 240.248 38.0267 239.821 37.856C239.405 37.6853 239.042 37.424 238.733 37.072C238.434 36.72 238.285 36.2453 238.285 35.648C238.285 35.1573 238.424 34.7093 238.701 34.304C238.989 33.8987 239.394 33.5787 239.917 33.344C240.45 33.1093 241.074 32.992 241.789 32.992C242.845 32.992 243.688 33.2587 244.317 33.792C244.946 34.3147 245.293 35.024 245.357 35.92H243.213C243.181 35.568 243.032 35.2907 242.765 35.088C242.509 34.8747 242.162 34.768 241.725 34.768C241.32 34.768 241.005 34.8427 240.781 34.992C240.568 35.1413 240.461 35.3493 240.461 35.616C240.461 35.9147 240.61 36.144 240.909 36.304C241.208 36.4533 241.672 36.608 242.301 36.768C242.941 36.928 243.469 37.0933 243.885 37.264C244.301 37.4347 244.658 37.7013 244.957 38.064C245.266 38.416 245.426 38.8853 245.437 39.472C245.437 39.984 245.293 40.4427 245.005 40.848C244.728 41.2533 244.322 41.5733 243.789 41.808C243.266 42.032 242.653 42.144 241.949 42.144ZM255.516 37.376C255.516 37.696 255.495 37.984 255.452 38.24H248.972C249.025 38.88 249.249 39.3813 249.644 39.744C250.039 40.1067 250.524 40.288 251.1 40.288C251.932 40.288 252.524 39.9307 252.876 39.216H255.292C255.036 40.0693 254.545 40.7733 253.82 41.328C253.095 41.872 252.204 42.144 251.148 42.144C250.295 42.144 249.527 41.9573 248.844 41.584C248.172 41.2 247.644 40.6613 247.26 39.968C246.887 39.2747 246.7 38.4747 246.7 37.568C246.7 36.6507 246.887 35.8453 247.26 35.152C247.633 34.4587 248.156 33.9253 248.828 33.552C249.5 33.1787 250.273 32.992 251.148 32.992C251.991 32.992 252.743 33.1733 253.404 33.536C254.076 33.8987 254.593 34.416 254.956 35.088C255.329 35.7493 255.516 36.512 255.516 37.376ZM253.196 36.736C253.185 36.16 252.977 35.7013 252.572 35.36C252.167 35.008 251.671 34.832 251.084 34.832C250.529 34.832 250.06 35.0027 249.676 35.344C249.303 35.6747 249.073 36.1387 248.988 36.736H253.196ZM268.159 33.008C269.247 33.008 270.122 33.344 270.783 34.016C271.455 34.6773 271.791 35.6053 271.791 36.8V42H269.551V37.104C269.551 36.4107 269.375 35.8827 269.023 35.52C268.671 35.1467 268.191 34.96 267.583 34.96C266.975 34.96 266.49 35.1467 266.127 35.52C265.775 35.8827 265.599 36.4107 265.599 37.104V42H263.359V37.104C263.359 36.4107 263.183 35.8827 262.831 35.52C262.479 35.1467 261.999 34.96 261.391 34.96C260.772 34.96 260.282 35.1467 259.919 35.52C259.567 35.8827 259.391 36.4107 259.391 37.104V42H257.151V33.136H259.391V34.208C259.679 33.8347 260.047 33.5413 260.495 33.328C260.954 33.1147 261.455 33.008 261.999 33.008C262.692 33.008 263.311 33.1573 263.855 33.456C264.399 33.744 264.82 34.16 265.119 34.704C265.407 34.192 265.823 33.7813 266.367 33.472C266.922 33.1627 267.519 33.008 268.159 33.008ZM273.34 37.536C273.34 36.64 273.516 35.8453 273.868 35.152C274.231 34.4587 274.717 33.9253 275.325 33.552C275.943 33.1787 276.631 32.992 277.389 32.992C278.05 32.992 278.626 33.1253 279.117 33.392C279.618 33.6587 280.018 33.9947 280.317 34.4V33.136H282.573V42H280.317V40.704C280.029 41.12 279.629 41.4667 279.117 41.744C278.615 42.0107 278.034 42.144 277.373 42.144C276.626 42.144 275.943 41.952 275.325 41.568C274.717 41.184 274.231 40.6453 273.868 39.952C273.516 39.248 273.34 38.4427 273.34 37.536ZM280.317 37.568C280.317 37.024 280.21 36.56 279.997 36.176C279.783 35.7813 279.495 35.4827 279.133 35.28C278.77 35.0667 278.381 34.96 277.965 34.96C277.549 34.96 277.165 35.0613 276.812 35.264C276.461 35.4667 276.173 35.7653 275.949 36.16C275.735 36.544 275.629 37.0027 275.629 37.536C275.629 38.0693 275.735 38.5387 275.949 38.944C276.173 39.3387 276.461 39.6427 276.812 39.856C277.175 40.0693 277.559 40.176 277.965 40.176C278.381 40.176 278.77 40.0747 279.133 39.872C279.495 39.6587 279.783 39.36 279.997 38.976C280.21 38.5813 280.317 38.112 280.317 37.568ZM289.672 33.008C290.728 33.008 291.582 33.344 292.232 34.016C292.883 34.6773 293.208 35.6053 293.208 36.8V42H290.968V37.104C290.968 36.4 290.792 35.8613 290.44 35.488C290.088 35.104 289.608 34.912 289 34.912C288.382 34.912 287.891 35.104 287.528 35.488C287.176 35.8613 287 36.4 287 37.104V42H284.76V33.136H287V34.24C287.299 33.856 287.678 33.5573 288.136 33.344C288.606 33.12 289.118 33.008 289.672 33.008ZM294.762 37.536C294.762 36.64 294.938 35.8453 295.29 35.152C295.653 34.4587 296.138 33.9253 296.746 33.552C297.365 33.1787 298.053 32.992 298.81 32.992C299.472 32.992 300.048 33.1253 300.538 33.392C301.04 33.6587 301.44 33.9947 301.738 34.4V33.136H303.994V42H301.738V40.704C301.45 41.12 301.05 41.4667 300.538 41.744C300.037 42.0107 299.456 42.144 298.794 42.144C298.048 42.144 297.365 41.952 296.746 41.568C296.138 41.184 295.653 40.6453 295.29 39.952C294.938 39.248 294.762 38.4427 294.762 37.536ZM301.738 37.568C301.738 37.024 301.632 36.56 301.418 36.176C301.205 35.7813 300.917 35.4827 300.554 35.28C300.192 35.0667 299.802 34.96 299.386 34.96C298.97 34.96 298.586 35.0613 298.234 35.264C297.882 35.4667 297.594 35.7653 297.37 36.16C297.157 36.544 297.05 37.0027 297.05 37.536C297.05 38.0693 297.157 38.5387 297.37 38.944C297.594 39.3387 297.882 39.6427 298.234 39.856C298.597 40.0693 298.981 40.176 299.386 40.176C299.802 40.176 300.192 40.0747 300.554 39.872C300.917 39.6587 301.205 39.36 301.418 38.976C301.632 38.5813 301.738 38.112 301.738 37.568ZM308.422 30.16V42H306.182V30.16H308.422ZM321.643 33.008C322.731 33.008 323.606 33.344 324.267 34.016C324.939 34.6773 325.275 35.6053 325.275 36.8V42H323.035V37.104C323.035 36.4107 322.859 35.8827 322.507 35.52C322.155 35.1467 321.675 34.96 321.067 34.96C320.459 34.96 319.974 35.1467 319.611 35.52C319.259 35.8827 319.083 36.4107 319.083 37.104V42H316.843V37.104C316.843 36.4107 316.667 35.8827 316.315 35.52C315.963 35.1467 315.483 34.96 314.875 34.96C314.257 34.96 313.766 35.1467 313.403 35.52C313.051 35.8827 312.875 36.4107 312.875 37.104V42H310.635V33.136H312.875V34.208C313.163 33.8347 313.531 33.5413 313.979 33.328C314.438 33.1147 314.939 33.008 315.483 33.008C316.177 33.008 316.795 33.1573 317.339 33.456C317.883 33.744 318.305 34.16 318.603 34.704C318.891 34.192 319.307 33.7813 319.851 33.472C320.406 33.1627 321.003 33.008 321.643 33.008ZM335.641 37.376C335.641 37.696 335.62 37.984 335.577 38.24H329.097C329.15 38.88 329.374 39.3813 329.769 39.744C330.164 40.1067 330.649 40.288 331.225 40.288C332.057 40.288 332.649 39.9307 333.001 39.216H335.417C335.161 40.0693 334.67 40.7733 333.945 41.328C333.22 41.872 332.329 42.144 331.273 42.144C330.42 42.144 329.652 41.9573 328.969 41.584C328.297 41.2 327.769 40.6613 327.385 39.968C327.012 39.2747 326.825 38.4747 326.825 37.568C326.825 36.6507 327.012 35.8453 327.385 35.152C327.758 34.4587 328.281 33.9253 328.953 33.552C329.625 33.1787 330.398 32.992 331.273 32.992C332.116 32.992 332.868 33.1733 333.529 33.536C334.201 33.8987 334.718 34.416 335.081 35.088C335.454 35.7493 335.641 36.512 335.641 37.376ZM333.321 36.736C333.31 36.16 333.102 35.7013 332.697 35.36C332.292 35.008 331.796 34.832 331.209 34.832C330.654 34.832 330.185 35.0027 329.801 35.344C329.428 35.6747 329.198 36.1387 329.113 36.736H333.321ZM342.188 33.008C343.244 33.008 344.097 33.344 344.748 34.016C345.399 34.6773 345.724 35.6053 345.724 36.8V42H343.484V37.104C343.484 36.4 343.308 35.8613 342.956 35.488C342.604 35.104 342.124 34.912 341.516 34.912C340.897 34.912 340.407 35.104 340.044 35.488C339.692 35.8613 339.516 36.4 339.516 37.104V42H337.276V33.136H339.516V34.24C339.815 33.856 340.193 33.5573 340.652 33.344C341.121 33.12 341.633 33.008 342.188 33.008ZM350.462 34.976V39.264C350.462 39.5627 350.531 39.7813 350.67 39.92C350.819 40.048 351.065 40.112 351.406 40.112H352.446V42H351.038C349.15 42 348.206 41.0827 348.206 39.248V34.976H347.15V33.136H348.206V30.944H350.462V33.136H352.446V34.976H350.462ZM362.297 37.376C362.297 37.696 362.276 37.984 362.233 38.24H355.753C355.806 38.88 356.03 39.3813 356.425 39.744C356.82 40.1067 357.305 40.288 357.881 40.288C358.713 40.288 359.305 39.9307 359.657 39.216H362.073C361.817 40.0693 361.326 40.7733 360.601 41.328C359.876 41.872 358.985 42.144 357.929 42.144C357.076 42.144 356.308 41.9573 355.625 41.584C354.953 41.2 354.425 40.6613 354.041 39.968C353.668 39.2747 353.481 38.4747 353.481 37.568C353.481 36.6507 353.668 35.8453 354.041 35.152C354.414 34.4587 354.937 33.9253 355.609 33.552C356.281 33.1787 357.054 32.992 357.929 32.992C358.772 32.992 359.524 33.1733 360.185 33.536C360.857 33.8987 361.374 34.416 361.737 35.088C362.11 35.7493 362.297 36.512 362.297 37.376ZM359.977 36.736C359.966 36.16 359.758 35.7013 359.353 35.36C358.948 35.008 358.452 34.832 357.865 34.832C357.31 34.832 356.841 35.0027 356.457 35.344C356.084 35.6747 355.854 36.1387 355.769 36.736H359.977Z" fill="white"/>
<path d="M39.322 79.984H34.408V83.176C34.6227 82.8773 34.94 82.6347 35.36 82.448C35.78 82.252 36.2327 82.154 36.718 82.154C37.4927 82.154 38.1227 82.3173 38.608 82.644C39.0933 82.9613 39.4387 83.3767 39.644 83.89C39.8587 84.394 39.966 84.9307 39.966 85.5C39.966 86.172 39.84 86.774 39.588 87.306C39.336 87.838 38.9487 88.258 38.426 88.566C37.9127 88.874 37.2733 89.028 36.508 89.028C35.528 89.028 34.7347 88.776 34.128 88.272C33.5213 87.768 33.1527 87.096 33.022 86.256H34.268C34.3893 86.788 34.646 87.2033 35.038 87.502C35.43 87.8007 35.9247 87.95 36.522 87.95C37.2593 87.95 37.8147 87.7307 38.188 87.292C38.5613 86.844 38.748 86.256 38.748 85.528C38.748 84.8 38.5613 84.24 38.188 83.848C37.8147 83.4467 37.264 83.246 36.536 83.246C36.0413 83.246 35.6073 83.3673 35.234 83.61C34.87 83.8433 34.604 84.1653 34.436 84.576H33.232V78.864H39.322V79.984ZM41.659 83.834C41.659 82.2287 41.9203 80.978 42.443 80.082C42.9657 79.1767 43.8803 78.724 45.187 78.724C46.4843 78.724 47.3943 79.1767 47.917 80.082C48.4397 80.978 48.701 82.2287 48.701 83.834C48.701 85.4673 48.4397 86.7367 47.917 87.642C47.3943 88.5473 46.4843 89 45.187 89C43.8803 89 42.9657 88.5473 42.443 87.642C41.9203 86.7367 41.659 85.4673 41.659 83.834ZM47.441 83.834C47.441 83.022 47.385 82.336 47.273 81.776C47.1703 81.2067 46.951 80.7493 46.615 80.404C46.2883 80.0587 45.8123 79.886 45.187 79.886C44.5523 79.886 44.067 80.0587 43.731 80.404C43.4043 80.7493 43.185 81.2067 43.073 81.776C42.9703 82.336 42.919 83.022 42.919 83.834C42.919 84.674 42.9703 85.3787 43.073 85.948C43.185 86.5173 43.4043 86.9747 43.731 87.32C44.067 87.6653 44.5523 87.838 45.187 87.838C45.8123 87.838 46.2883 87.6653 46.615 87.32C46.951 86.9747 47.1703 86.5173 47.273 85.948C47.385 85.3787 47.441 84.674 47.441 83.834Z" fill="#3D94EF"/>
<path d="M32.56 109.746V108.78L37.474 101.976H39V108.64H40.4V109.746H39V112H37.74V109.746H32.56ZM37.796 103.306L34.03 108.64H37.796V103.306ZM41.6727 106.834C41.6727 105.229 41.934 103.978 42.4567 103.082C42.9794 102.177 43.894 101.724 45.2007 101.724C46.498 101.724 47.408 102.177 47.9307 103.082C48.4534 103.978 48.7147 105.229 48.7147 106.834C48.7147 108.467 48.4534 109.737 47.9307 110.642C47.408 111.547 46.498 112 45.2007 112C43.894 112 42.9794 111.547 42.4567 110.642C41.934 109.737 41.6727 108.467 41.6727 106.834ZM47.4547 106.834C47.4547 106.022 47.3987 105.336 47.2867 104.776C47.184 104.207 46.9647 103.749 46.6287 103.404C46.302 103.059 45.826 102.886 45.2007 102.886C44.566 102.886 44.0807 103.059 43.7447 103.404C43.418 103.749 43.1987 104.207 43.0867 104.776C42.984 105.336 42.9327 106.022 42.9327 106.834C42.9327 107.674 42.984 108.379 43.0867 108.948C43.1987 109.517 43.418 109.975 43.7447 110.32C44.0807 110.665 44.566 110.838 45.2007 110.838C45.826 110.838 46.302 110.665 46.6287 110.32C46.9647 109.975 47.184 109.517 47.2867 108.948C47.3987 108.379 47.4547 107.674 47.4547 106.834Z" fill="#3D94EF"/>
<path d="M33.84 127.426C33.9053 126.567 34.2367 125.895 34.834 125.41C35.4313 124.925 36.206 124.682 37.158 124.682C37.7927 124.682 38.3387 124.799 38.796 125.032C39.2627 125.256 39.6127 125.564 39.846 125.956C40.0887 126.348 40.21 126.791 40.21 127.286C40.21 127.865 40.042 128.364 39.706 128.784C39.3793 129.204 38.95 129.475 38.418 129.596V129.666C39.0247 129.815 39.5053 130.109 39.86 130.548C40.2147 130.987 40.392 131.561 40.392 132.27C40.392 132.802 40.2707 133.283 40.028 133.712C39.7853 134.132 39.4213 134.463 38.936 134.706C38.4507 134.949 37.8673 135.07 37.186 135.07C36.1967 135.07 35.3847 134.813 34.75 134.3C34.1153 133.777 33.7607 133.04 33.686 132.088H34.918C34.9833 132.648 35.212 133.105 35.604 133.46C35.996 133.815 36.5187 133.992 37.172 133.992C37.8253 133.992 38.32 133.824 38.656 133.488C39.0013 133.143 39.174 132.699 39.174 132.158C39.174 131.458 38.9407 130.954 38.474 130.646C38.0073 130.338 37.3027 130.184 36.36 130.184H36.038V129.12H36.374C37.2327 129.111 37.8813 128.971 38.32 128.7C38.7587 128.42 38.978 127.991 38.978 127.412C38.978 126.917 38.8147 126.521 38.488 126.222C38.1707 125.923 37.7133 125.774 37.116 125.774C36.5373 125.774 36.0707 125.923 35.716 126.222C35.3613 126.521 35.1513 126.922 35.086 127.426H33.84ZM42.1121 129.834C42.1121 128.229 42.3735 126.978 42.8961 126.082C43.4188 125.177 44.3335 124.724 45.6401 124.724C46.9375 124.724 47.8475 125.177 48.3701 126.082C48.8928 126.978 49.1541 128.229 49.1541 129.834C49.1541 131.467 48.8928 132.737 48.3701 133.642C47.8475 134.547 46.9375 135 45.6401 135C44.3335 135 43.4188 134.547 42.8961 133.642C42.3735 132.737 42.1121 131.467 42.1121 129.834ZM47.8941 129.834C47.8941 129.022 47.8381 128.336 47.7261 127.776C47.6235 127.207 47.4041 126.749 47.0681 126.404C46.7415 126.059 46.2655 125.886 45.6401 125.886C45.0055 125.886 44.5201 126.059 44.1841 126.404C43.8575 126.749 43.6381 127.207 43.5261 127.776C43.4235 128.336 43.3721 129.022 43.3721 129.834C43.3721 130.674 43.4235 131.379 43.5261 131.948C43.6381 132.517 43.8575 132.975 44.1841 133.32C44.5201 133.665 45.0055 133.838 45.6401 133.838C46.2655 133.838 46.7415 133.665 47.0681 133.32C47.4041 132.975 47.6235 132.517 47.7261 131.948C47.8381 131.379 47.8941 130.674 47.8941 129.834Z" fill="#3D94EF"/>
<path d="M33.714 156.978C34.8993 156.026 35.828 155.247 36.5 154.64C37.172 154.024 37.7367 153.385 38.194 152.722C38.6607 152.05 38.894 151.392 38.894 150.748C38.894 150.141 38.7447 149.665 38.446 149.32C38.1567 148.965 37.6853 148.788 37.032 148.788C36.3973 148.788 35.9027 148.989 35.548 149.39C35.2027 149.782 35.016 150.309 34.988 150.972H33.756C33.7933 149.927 34.1107 149.119 34.708 148.55C35.3053 147.981 36.0753 147.696 37.018 147.696C37.9793 147.696 38.74 147.962 39.3 148.494C39.8693 149.026 40.154 149.759 40.154 150.692C40.154 151.467 39.9207 152.223 39.454 152.96C38.9967 153.688 38.474 154.332 37.886 154.892C37.298 155.443 36.5467 156.087 35.632 156.824H40.448V157.888H33.714V156.978ZM41.9207 152.834C41.9207 151.229 42.1821 149.978 42.7047 149.082C43.2274 148.177 44.1421 147.724 45.4487 147.724C46.7461 147.724 47.6561 148.177 48.1787 149.082C48.7014 149.978 48.9627 151.229 48.9627 152.834C48.9627 154.467 48.7014 155.737 48.1787 156.642C47.6561 157.547 46.7461 158 45.4487 158C44.1421 158 43.2274 157.547 42.7047 156.642C42.1821 155.737 41.9207 154.467 41.9207 152.834ZM47.7027 152.834C47.7027 152.022 47.6467 151.336 47.5347 150.776C47.4321 150.207 47.2127 149.749 46.8767 149.404C46.5501 149.059 46.0741 148.886 45.4487 148.886C44.8141 148.886 44.3287 149.059 43.9927 149.404C43.6661 149.749 43.4467 150.207 43.3347 150.776C43.2321 151.336 43.1807 152.022 43.1807 152.834C43.1807 153.674 43.2321 154.379 43.3347 154.948C43.4467 155.517 43.6661 155.975 43.9927 156.32C44.3287 156.665 44.8141 156.838 45.4487 156.838C46.0741 156.838 46.5501 156.665 46.8767 156.32C47.2127 155.975 47.4321 155.517 47.5347 154.948C47.6467 154.379 47.7027 153.674 47.7027 152.834Z" fill="#3D94EF"/>
<path d="M36.532 172.04V170.878H39.164V181H37.876V172.04H36.532ZM41.3524 175.834C41.3524 174.229 41.6137 172.978 42.1364 172.082C42.659 171.177 43.5737 170.724 44.8804 170.724C46.1777 170.724 47.0877 171.177 47.6104 172.082C48.133 172.978 48.3944 174.229 48.3944 175.834C48.3944 177.467 48.133 178.737 47.6104 179.642C47.0877 180.547 46.1777 181 44.8804 181C43.5737 181 42.659 180.547 42.1364 179.642C41.6137 178.737 41.3524 177.467 41.3524 175.834ZM47.1344 175.834C47.1344 175.022 47.0784 174.336 46.9664 173.776C46.8637 173.207 46.6444 172.749 46.3084 172.404C45.9817 172.059 45.5057 171.886 44.8804 171.886C44.2457 171.886 43.7604 172.059 43.4244 172.404C43.0977 172.749 42.8784 173.207 42.7664 173.776C42.6637 174.336 42.6124 175.022 42.6124 175.834C42.6124 176.674 42.6637 177.379 42.7664 177.948C42.8784 178.517 43.0977 178.975 43.4244 179.32C43.7604 179.665 44.2457 179.838 44.8804 179.838C45.5057 179.838 45.9817 179.665 46.3084 179.32C46.6444 178.975 46.8637 178.517 46.9664 177.948C47.0784 177.379 47.1344 176.674 47.1344 175.834Z" fill="#3D94EF"/>
<path d="M41.868 198.834C41.868 197.229 42.1293 195.978 42.652 195.082C43.1747 194.177 44.0893 193.724 45.396 193.724C46.6933 193.724 47.6033 194.177 48.126 195.082C48.6487 195.978 48.91 197.229 48.91 198.834C48.91 200.467 48.6487 201.737 48.126 202.642C47.6033 203.547 46.6933 204 45.396 204C44.0893 204 43.1747 203.547 42.652 202.642C42.1293 201.737 41.868 200.467 41.868 198.834ZM47.65 198.834C47.65 198.022 47.594 197.336 47.482 196.776C47.3793 196.207 47.16 195.749 46.824 195.404C46.4973 195.059 46.0213 194.886 45.396 194.886C44.7613 194.886 44.276 195.059 43.94 195.404C43.6133 195.749 43.394 196.207 43.282 196.776C43.1793 197.336 43.128 198.022 43.128 198.834C43.128 199.674 43.1793 200.379 43.282 200.948C43.394 201.517 43.6133 201.975 43.94 202.32C44.276 202.665 44.7613 202.838 45.396 202.838C46.0213 202.838 46.4973 202.665 46.824 202.32C47.16 201.975 47.3793 201.517 47.482 200.948C47.594 200.379 47.65 199.674 47.65 198.834Z" fill="#3D94EF"/>
<path d="M319.532 217.04V215.878H322.164V226H320.876V217.04H319.532ZM324.324 218.426C324.39 217.567 324.721 216.895 325.318 216.41C325.916 215.925 326.69 215.682 327.642 215.682C328.277 215.682 328.823 215.799 329.28 216.032C329.747 216.256 330.097 216.564 330.33 216.956C330.573 217.348 330.694 217.791 330.694 218.286C330.694 218.865 330.526 219.364 330.19 219.784C329.864 220.204 329.434 220.475 328.902 220.596V220.666C329.509 220.815 329.99 221.109 330.344 221.548C330.699 221.987 330.876 222.561 330.876 223.27C330.876 223.802 330.755 224.283 330.512 224.712C330.27 225.132 329.906 225.463 329.42 225.706C328.935 225.949 328.352 226.07 327.67 226.07C326.681 226.07 325.869 225.813 325.234 225.3C324.6 224.777 324.245 224.04 324.17 223.088H325.402C325.468 223.648 325.696 224.105 326.088 224.46C326.48 224.815 327.003 224.992 327.656 224.992C328.31 224.992 328.804 224.824 329.14 224.488C329.486 224.143 329.658 223.699 329.658 223.158C329.658 222.458 329.425 221.954 328.958 221.646C328.492 221.338 327.787 221.184 326.844 221.184H326.522V220.12H326.858C327.717 220.111 328.366 219.971 328.804 219.7C329.243 219.42 329.462 218.991 329.462 218.412C329.462 217.917 329.299 217.521 328.972 217.222C328.655 216.923 328.198 216.774 327.6 216.774C327.022 216.774 326.555 216.923 326.2 217.222C325.846 217.521 325.636 217.922 325.57 218.426H324.324ZM342.307 223.83H338.051L337.267 226H335.923L339.451 216.298H340.921L344.435 226H343.091L342.307 223.83ZM341.943 222.794L340.179 217.866L338.415 222.794H341.943ZM349.137 218.202C349.799 218.202 350.378 218.347 350.873 218.636C351.377 218.925 351.75 219.289 351.993 219.728V218.328H353.281V226.168C353.281 226.868 353.131 227.489 352.833 228.03C352.534 228.581 352.105 229.01 351.545 229.318C350.994 229.626 350.35 229.78 349.613 229.78C348.605 229.78 347.765 229.542 347.093 229.066C346.421 228.59 346.024 227.941 345.903 227.12H347.163C347.303 227.587 347.592 227.96 348.031 228.24C348.469 228.529 348.997 228.674 349.613 228.674C350.313 228.674 350.882 228.455 351.321 228.016C351.769 227.577 351.993 226.961 351.993 226.168V224.558C351.741 225.006 351.367 225.379 350.873 225.678C350.378 225.977 349.799 226.126 349.137 226.126C348.455 226.126 347.835 225.958 347.275 225.622C346.724 225.286 346.29 224.815 345.973 224.208C345.655 223.601 345.497 222.911 345.497 222.136C345.497 221.352 345.655 220.666 345.973 220.078C346.29 219.481 346.724 219.019 347.275 218.692C347.835 218.365 348.455 218.202 349.137 218.202ZM351.993 222.15C351.993 221.571 351.876 221.067 351.643 220.638C351.409 220.209 351.092 219.882 350.691 219.658C350.299 219.425 349.865 219.308 349.389 219.308C348.913 219.308 348.479 219.42 348.087 219.644C347.695 219.868 347.382 220.195 347.149 220.624C346.915 221.053 346.799 221.557 346.799 222.136C346.799 222.724 346.915 223.237 347.149 223.676C347.382 224.105 347.695 224.437 348.087 224.67C348.479 224.894 348.913 225.006 349.389 225.006C349.865 225.006 350.299 224.894 350.691 224.67C351.092 224.437 351.409 224.105 351.643 223.676C351.876 223.237 351.993 222.729 351.993 222.15ZM358.779 226.126C358.061 226.126 357.407 225.963 356.819 225.636C356.241 225.309 355.783 224.847 355.447 224.25C355.121 223.643 354.957 222.943 354.957 222.15C354.957 221.366 355.125 220.675 355.461 220.078C355.807 219.471 356.273 219.009 356.861 218.692C357.449 218.365 358.107 218.202 358.835 218.202C359.563 218.202 360.221 218.365 360.809 218.692C361.397 219.009 361.859 219.467 362.195 220.064C362.541 220.661 362.713 221.357 362.713 222.15C362.713 222.943 362.536 223.643 362.181 224.25C361.836 224.847 361.365 225.309 360.767 225.636C360.17 225.963 359.507 226.126 358.779 226.126ZM358.779 225.006C359.237 225.006 359.666 224.899 360.067 224.684C360.469 224.469 360.791 224.147 361.033 223.718C361.285 223.289 361.411 222.766 361.411 222.15C361.411 221.534 361.29 221.011 361.047 220.582C360.805 220.153 360.487 219.835 360.095 219.63C359.703 219.415 359.279 219.308 358.821 219.308C358.355 219.308 357.925 219.415 357.533 219.63C357.151 219.835 356.843 220.153 356.609 220.582C356.376 221.011 356.259 221.534 356.259 222.15C356.259 222.775 356.371 223.303 356.595 223.732C356.829 224.161 357.137 224.483 357.519 224.698C357.902 224.903 358.322 225.006 358.779 225.006Z" fill="#3D94EF"/>
<path d="M387.532 217.04V215.878H390.164V226H388.876V217.04H387.532ZM392.044 223.746V222.78L396.958 215.976H398.484V222.64H399.884V223.746H398.484V226H397.224V223.746H392.044ZM397.28 217.306L393.514 222.64H397.28V217.306ZM410.867 223.83H406.611L405.827 226H404.483L408.011 216.298H409.481L412.995 226H411.651L410.867 223.83ZM410.503 222.794L408.739 217.866L406.975 222.794H410.503ZM417.697 218.202C418.36 218.202 418.938 218.347 419.433 218.636C419.937 218.925 420.31 219.289 420.553 219.728V218.328H421.841V226.168C421.841 226.868 421.692 227.489 421.393 228.03C421.094 228.581 420.665 229.01 420.105 229.318C419.554 229.626 418.91 229.78 418.173 229.78C417.165 229.78 416.325 229.542 415.653 229.066C414.981 228.59 414.584 227.941 414.463 227.12H415.723C415.863 227.587 416.152 227.96 416.591 228.24C417.03 228.529 417.557 228.674 418.173 228.674C418.873 228.674 419.442 228.455 419.881 228.016C420.329 227.577 420.553 226.961 420.553 226.168V224.558C420.301 225.006 419.928 225.379 419.433 225.678C418.938 225.977 418.36 226.126 417.697 226.126C417.016 226.126 416.395 225.958 415.835 225.622C415.284 225.286 414.85 224.815 414.533 224.208C414.216 223.601 414.057 222.911 414.057 222.136C414.057 221.352 414.216 220.666 414.533 220.078C414.85 219.481 415.284 219.019 415.835 218.692C416.395 218.365 417.016 218.202 417.697 218.202ZM420.553 222.15C420.553 221.571 420.436 221.067 420.203 220.638C419.97 220.209 419.652 219.882 419.251 219.658C418.859 219.425 418.425 219.308 417.949 219.308C417.473 219.308 417.039 219.42 416.647 219.644C416.255 219.868 415.942 220.195 415.709 220.624C415.476 221.053 415.359 221.557 415.359 222.136C415.359 222.724 415.476 223.237 415.709 223.676C415.942 224.105 416.255 224.437 416.647 224.67C417.039 224.894 417.473 225.006 417.949 225.006C418.425 225.006 418.859 224.894 419.251 224.67C419.652 224.437 419.97 224.105 420.203 223.676C420.436 223.237 420.553 222.729 420.553 222.15ZM427.34 226.126C426.621 226.126 425.968 225.963 425.38 225.636C424.801 225.309 424.344 224.847 424.008 224.25C423.681 223.643 423.518 222.943 423.518 222.15C423.518 221.366 423.686 220.675 424.022 220.078C424.367 219.471 424.834 219.009 425.422 218.692C426.01 218.365 426.668 218.202 427.396 218.202C428.124 218.202 428.782 218.365 429.37 218.692C429.958 219.009 430.42 219.467 430.756 220.064C431.101 220.661 431.274 221.357 431.274 222.15C431.274 222.943 431.097 223.643 430.742 224.25C430.397 224.847 429.925 225.309 429.328 225.636C428.731 225.963 428.068 226.126 427.34 226.126ZM427.34 225.006C427.797 225.006 428.227 224.899 428.628 224.684C429.029 224.469 429.351 224.147 429.594 223.718C429.846 223.289 429.972 222.766 429.972 222.15C429.972 221.534 429.851 221.011 429.608 220.582C429.365 220.153 429.048 219.835 428.656 219.63C428.264 219.415 427.839 219.308 427.382 219.308C426.915 219.308 426.486 219.415 426.094 219.63C425.711 219.835 425.403 220.153 425.17 220.582C424.937 221.011 424.82 221.534 424.82 222.15C424.82 222.775 424.932 223.303 425.156 223.732C425.389 224.161 425.697 224.483 426.08 224.698C426.463 224.903 426.883 225.006 427.34 225.006Z" fill="#3D94EF"/>
<path d="M457.532 217.04V215.878H460.164V226H458.876V217.04H457.532ZM468.806 216.984H463.892V220.176C464.107 219.877 464.424 219.635 464.844 219.448C465.264 219.252 465.717 219.154 466.202 219.154C466.977 219.154 467.607 219.317 468.092 219.644C468.578 219.961 468.923 220.377 469.128 220.89C469.343 221.394 469.45 221.931 469.45 222.5C469.45 223.172 469.324 223.774 469.072 224.306C468.82 224.838 468.433 225.258 467.91 225.566C467.397 225.874 466.758 226.028 465.992 226.028C465.012 226.028 464.219 225.776 463.612 225.272C463.006 224.768 462.637 224.096 462.506 223.256H463.752C463.874 223.788 464.13 224.203 464.522 224.502C464.914 224.801 465.409 224.95 466.006 224.95C466.744 224.95 467.299 224.731 467.672 224.292C468.046 223.844 468.232 223.256 468.232 222.528C468.232 221.8 468.046 221.24 467.672 220.848C467.299 220.447 466.748 220.246 466.02 220.246C465.526 220.246 465.092 220.367 464.718 220.61C464.354 220.843 464.088 221.165 463.92 221.576H462.716V215.864H468.806V216.984ZM480.854 223.83H476.598L475.814 226H474.47L477.998 216.298H479.468L482.982 226H481.638L480.854 223.83ZM480.49 222.794L478.726 217.866L476.962 222.794H480.49ZM487.683 218.202C488.346 218.202 488.925 218.347 489.419 218.636C489.923 218.925 490.297 219.289 490.539 219.728V218.328H491.827V226.168C491.827 226.868 491.678 227.489 491.379 228.03C491.081 228.581 490.651 229.01 490.091 229.318C489.541 229.626 488.897 229.78 488.159 229.78C487.151 229.78 486.311 229.542 485.639 229.066C484.967 228.59 484.571 227.941 484.449 227.12H485.709C485.849 227.587 486.139 227.96 486.577 228.24C487.016 228.529 487.543 228.674 488.159 228.674C488.859 228.674 489.429 228.455 489.867 228.016C490.315 227.577 490.539 226.961 490.539 226.168V224.558C490.287 225.006 489.914 225.379 489.419 225.678C488.925 225.977 488.346 226.126 487.683 226.126C487.002 226.126 486.381 225.958 485.821 225.622C485.271 225.286 484.837 224.815 484.519 224.208C484.202 223.601 484.043 222.911 484.043 222.136C484.043 221.352 484.202 220.666 484.519 220.078C484.837 219.481 485.271 219.019 485.821 218.692C486.381 218.365 487.002 218.202 487.683 218.202ZM490.539 222.15C490.539 221.571 490.423 221.067 490.189 220.638C489.956 220.209 489.639 219.882 489.237 219.658C488.845 219.425 488.411 219.308 487.935 219.308C487.459 219.308 487.025 219.42 486.633 219.644C486.241 219.868 485.929 220.195 485.695 220.624C485.462 221.053 485.345 221.557 485.345 222.136C485.345 222.724 485.462 223.237 485.695 223.676C485.929 224.105 486.241 224.437 486.633 224.67C487.025 224.894 487.459 225.006 487.935 225.006C488.411 225.006 488.845 224.894 489.237 224.67C489.639 224.437 489.956 224.105 490.189 223.676C490.423 223.237 490.539 222.729 490.539 222.15ZM497.326 226.126C496.608 226.126 495.954 225.963 495.366 225.636C494.788 225.309 494.33 224.847 493.994 224.25C493.668 223.643 493.504 222.943 493.504 222.15C493.504 221.366 493.672 220.675 494.008 220.078C494.354 219.471 494.82 219.009 495.408 218.692C495.996 218.365 496.654 218.202 497.382 218.202C498.11 218.202 498.768 218.365 499.356 218.692C499.944 219.009 500.406 219.467 500.742 220.064C501.088 220.661 501.26 221.357 501.26 222.15C501.26 222.943 501.083 223.643 500.728 224.25C500.383 224.847 499.912 225.309 499.314 225.636C498.717 225.963 498.054 226.126 497.326 226.126ZM497.326 225.006C497.784 225.006 498.213 224.899 498.614 224.684C499.016 224.469 499.338 224.147 499.58 223.718C499.832 223.289 499.958 222.766 499.958 222.15C499.958 221.534 499.837 221.011 499.594 220.582C499.352 220.153 499.034 219.835 498.642 219.63C498.25 219.415 497.826 219.308 497.368 219.308C496.902 219.308 496.472 219.415 496.08 219.63C495.698 219.835 495.39 220.153 495.156 220.582C494.923 221.011 494.806 221.534 494.806 222.15C494.806 222.775 494.918 223.303 495.142 223.732C495.376 224.161 495.684 224.483 496.066 224.698C496.449 224.903 496.869 225.006 497.326 225.006Z" fill="#3D94EF"/>
<path d="M113.532 217.04V215.878H116.164V226H114.876V217.04H113.532ZM118.352 220.834C118.352 219.229 118.614 217.978 119.136 217.082C119.659 216.177 120.574 215.724 121.88 215.724C123.178 215.724 124.088 216.177 124.61 217.082C125.133 217.978 125.394 219.229 125.394 220.834C125.394 222.467 125.133 223.737 124.61 224.642C124.088 225.547 123.178 226 121.88 226C120.574 226 119.659 225.547 119.136 224.642C118.614 223.737 118.352 222.467 118.352 220.834ZM124.134 220.834C124.134 220.022 124.078 219.336 123.966 218.776C123.864 218.207 123.644 217.749 123.308 217.404C122.982 217.059 122.506 216.886 121.88 216.886C121.246 216.886 120.76 217.059 120.424 217.404C120.098 217.749 119.878 218.207 119.766 218.776C119.664 219.336 119.612 220.022 119.612 220.834C119.612 221.674 119.664 222.379 119.766 222.948C119.878 223.517 120.098 223.975 120.424 224.32C120.76 224.665 121.246 224.838 121.88 224.838C122.506 224.838 122.982 224.665 123.308 224.32C123.644 223.975 123.864 223.517 123.966 222.948C124.078 222.379 124.134 221.674 124.134 220.834ZM136.854 223.83H132.598L131.814 226H130.47L133.998 216.298H135.468L138.982 226H137.638L136.854 223.83ZM136.49 222.794L134.726 217.866L132.962 222.794H136.49ZM143.683 218.202C144.346 218.202 144.925 218.347 145.419 218.636C145.923 218.925 146.297 219.289 146.539 219.728V218.328H147.827V226.168C147.827 226.868 147.678 227.489 147.379 228.03C147.081 228.581 146.651 229.01 146.091 229.318C145.541 229.626 144.897 229.78 144.159 229.78C143.151 229.78 142.311 229.542 141.639 229.066C140.967 228.59 140.571 227.941 140.449 227.12H141.709C141.849 227.587 142.139 227.96 142.577 228.24C143.016 228.529 143.543 228.674 144.159 228.674C144.859 228.674 145.429 228.455 145.867 228.016C146.315 227.577 146.539 226.961 146.539 226.168V224.558C146.287 225.006 145.914 225.379 145.419 225.678C144.925 225.977 144.346 226.126 143.683 226.126C143.002 226.126 142.381 225.958 141.821 225.622C141.271 225.286 140.837 224.815 140.519 224.208C140.202 223.601 140.043 222.911 140.043 222.136C140.043 221.352 140.202 220.666 140.519 220.078C140.837 219.481 141.271 219.019 141.821 218.692C142.381 218.365 143.002 218.202 143.683 218.202ZM146.539 222.15C146.539 221.571 146.423 221.067 146.189 220.638C145.956 220.209 145.639 219.882 145.237 219.658C144.845 219.425 144.411 219.308 143.935 219.308C143.459 219.308 143.025 219.42 142.633 219.644C142.241 219.868 141.929 220.195 141.695 220.624C141.462 221.053 141.345 221.557 141.345 222.136C141.345 222.724 141.462 223.237 141.695 223.676C141.929 224.105 142.241 224.437 142.633 224.67C143.025 224.894 143.459 225.006 143.935 225.006C144.411 225.006 144.845 224.894 145.237 224.67C145.639 224.437 145.956 224.105 146.189 223.676C146.423 223.237 146.539 222.729 146.539 222.15ZM153.326 226.126C152.608 226.126 151.954 225.963 151.366 225.636C150.788 225.309 150.33 224.847 149.994 224.25C149.668 223.643 149.504 222.943 149.504 222.15C149.504 221.366 149.672 220.675 150.008 220.078C150.354 219.471 150.82 219.009 151.408 218.692C151.996 218.365 152.654 218.202 153.382 218.202C154.11 218.202 154.768 218.365 155.356 218.692C155.944 219.009 156.406 219.467 156.742 220.064C157.088 220.661 157.26 221.357 157.26 222.15C157.26 222.943 157.083 223.643 156.728 224.25C156.383 224.847 155.912 225.309 155.314 225.636C154.717 225.963 154.054 226.126 153.326 226.126ZM153.326 225.006C153.784 225.006 154.213 224.899 154.614 224.684C155.016 224.469 155.338 224.147 155.58 223.718C155.832 223.289 155.958 222.766 155.958 222.15C155.958 221.534 155.837 221.011 155.594 220.582C155.352 220.153 155.034 219.835 154.642 219.63C154.25 219.415 153.826 219.308 153.368 219.308C152.902 219.308 152.472 219.415 152.08 219.63C151.698 219.835 151.39 220.153 151.156 220.582C150.923 221.011 150.806 221.534 150.806 222.15C150.806 222.775 150.918 223.303 151.142 223.732C151.376 224.161 151.684 224.483 152.066 224.698C152.449 224.903 152.869 225.006 153.326 225.006Z" fill="#3D94EF"/>
<path d="M250.532 217.04V215.878H253.164V226H251.876V217.04H250.532ZM255.198 224.978C256.384 224.026 257.312 223.247 257.984 222.64C258.656 222.024 259.221 221.385 259.678 220.722C260.145 220.05 260.378 219.392 260.378 218.748C260.378 218.141 260.229 217.665 259.93 217.32C259.641 216.965 259.17 216.788 258.516 216.788C257.882 216.788 257.387 216.989 257.032 217.39C256.687 217.782 256.5 218.309 256.472 218.972H255.24C255.278 217.927 255.595 217.119 256.192 216.55C256.79 215.981 257.56 215.696 258.502 215.696C259.464 215.696 260.224 215.962 260.784 216.494C261.354 217.026 261.638 217.759 261.638 218.692C261.638 219.467 261.405 220.223 260.938 220.96C260.481 221.688 259.958 222.332 259.37 222.892C258.782 223.443 258.031 224.087 257.116 224.824H261.932V225.888H255.198V224.978ZM273.116 223.83H268.86L268.076 226H266.732L270.26 216.298H271.73L275.244 226H273.9L273.116 223.83ZM272.752 222.794L270.988 217.866L269.224 222.794H272.752ZM279.945 218.202C280.608 218.202 281.186 218.347 281.681 218.636C282.185 218.925 282.558 219.289 282.801 219.728V218.328H284.089V226.168C284.089 226.868 283.94 227.489 283.641 228.03C283.342 228.581 282.913 229.01 282.353 229.318C281.802 229.626 281.158 229.78 280.421 229.78C279.413 229.78 278.573 229.542 277.901 229.066C277.229 228.59 276.832 227.941 276.711 227.12H277.971C278.111 227.587 278.4 227.96 278.839 228.24C279.278 228.529 279.805 228.674 280.421 228.674C281.121 228.674 281.69 228.455 282.129 228.016C282.577 227.577 282.801 226.961 282.801 226.168V224.558C282.549 225.006 282.176 225.379 281.681 225.678C281.186 225.977 280.608 226.126 279.945 226.126C279.264 226.126 278.643 225.958 278.083 225.622C277.532 225.286 277.098 224.815 276.781 224.208C276.464 223.601 276.305 222.911 276.305 222.136C276.305 221.352 276.464 220.666 276.781 220.078C277.098 219.481 277.532 219.019 278.083 218.692C278.643 218.365 279.264 218.202 279.945 218.202ZM282.801 222.15C282.801 221.571 282.684 221.067 282.451 220.638C282.218 220.209 281.9 219.882 281.499 219.658C281.107 219.425 280.673 219.308 280.197 219.308C279.721 219.308 279.287 219.42 278.895 219.644C278.503 219.868 278.19 220.195 277.957 220.624C277.724 221.053 277.607 221.557 277.607 222.136C277.607 222.724 277.724 223.237 277.957 223.676C278.19 224.105 278.503 224.437 278.895 224.67C279.287 224.894 279.721 225.006 280.197 225.006C280.673 225.006 281.107 224.894 281.499 224.67C281.9 224.437 282.218 224.105 282.451 223.676C282.684 223.237 282.801 222.729 282.801 222.15ZM289.588 226.126C288.869 226.126 288.216 225.963 287.628 225.636C287.049 225.309 286.592 224.847 286.256 224.25C285.929 223.643 285.766 222.943 285.766 222.15C285.766 221.366 285.934 220.675 286.27 220.078C286.615 219.471 287.082 219.009 287.67 218.692C288.258 218.365 288.916 218.202 289.644 218.202C290.372 218.202 291.03 218.365 291.618 218.692C292.206 219.009 292.668 219.467 293.004 220.064C293.349 220.661 293.522 221.357 293.522 222.15C293.522 222.943 293.345 223.643 292.99 224.25C292.645 224.847 292.173 225.309 291.576 225.636C290.979 225.963 290.316 226.126 289.588 226.126ZM289.588 225.006C290.045 225.006 290.475 224.899 290.876 224.684C291.277 224.469 291.599 224.147 291.842 223.718C292.094 223.289 292.22 222.766 292.22 222.15C292.22 221.534 292.099 221.011 291.856 220.582C291.613 220.153 291.296 219.835 290.904 219.63C290.512 219.415 290.087 219.308 289.63 219.308C289.163 219.308 288.734 219.415 288.342 219.63C287.959 219.835 287.651 220.153 287.418 220.582C287.185 221.011 287.068 221.534 287.068 222.15C287.068 222.775 287.18 223.303 287.404 223.732C287.637 224.161 287.945 224.483 288.328 224.698C288.711 224.903 289.131 225.006 289.588 225.006Z" fill="#3D94EF"/>
<path d="M184.532 217.04V215.878H187.164V226H185.876V217.04H184.532ZM189.016 217.04V215.878H191.648V226H190.36V217.04H189.016ZM203.547 223.83H199.291L198.507 226H197.163L200.691 216.298H202.161L205.675 226H204.331L203.547 223.83ZM203.183 222.794L201.419 217.866L199.655 222.794H203.183ZM210.377 218.202C211.039 218.202 211.618 218.347 212.113 218.636C212.617 218.925 212.99 219.289 213.233 219.728V218.328H214.521V226.168C214.521 226.868 214.371 227.489 214.073 228.03C213.774 228.581 213.345 229.01 212.785 229.318C212.234 229.626 211.59 229.78 210.853 229.78C209.845 229.78 209.005 229.542 208.333 229.066C207.661 228.59 207.264 227.941 207.143 227.12H208.403C208.543 227.587 208.832 227.96 209.271 228.24C209.709 228.529 210.237 228.674 210.853 228.674C211.553 228.674 212.122 228.455 212.561 228.016C213.009 227.577 213.233 226.961 213.233 226.168V224.558C212.981 225.006 212.607 225.379 212.113 225.678C211.618 225.977 211.039 226.126 210.377 226.126C209.695 226.126 209.075 225.958 208.515 225.622C207.964 225.286 207.53 224.815 207.213 224.208C206.895 223.601 206.737 222.911 206.737 222.136C206.737 221.352 206.895 220.666 207.213 220.078C207.53 219.481 207.964 219.019 208.515 218.692C209.075 218.365 209.695 218.202 210.377 218.202ZM213.233 222.15C213.233 221.571 213.116 221.067 212.883 220.638C212.649 220.209 212.332 219.882 211.931 219.658C211.539 219.425 211.105 219.308 210.629 219.308C210.153 219.308 209.719 219.42 209.327 219.644C208.935 219.868 208.622 220.195 208.389 220.624C208.155 221.053 208.039 221.557 208.039 222.136C208.039 222.724 208.155 223.237 208.389 223.676C208.622 224.105 208.935 224.437 209.327 224.67C209.719 224.894 210.153 225.006 210.629 225.006C211.105 225.006 211.539 224.894 211.931 224.67C212.332 224.437 212.649 224.105 212.883 223.676C213.116 223.237 213.233 222.729 213.233 222.15ZM220.02 226.126C219.301 226.126 218.648 225.963 218.06 225.636C217.481 225.309 217.024 224.847 216.688 224.25C216.361 223.643 216.198 222.943 216.198 222.15C216.198 221.366 216.366 220.675 216.702 220.078C217.047 219.471 217.514 219.009 218.102 218.692C218.69 218.365 219.348 218.202 220.076 218.202C220.804 218.202 221.462 218.365 222.05 218.692C222.638 219.009 223.1 219.467 223.436 220.064C223.781 220.661 223.954 221.357 223.954 222.15C223.954 222.943 223.776 223.643 223.422 224.25C223.076 224.847 222.605 225.309 222.008 225.636C221.41 225.963 220.748 226.126 220.02 226.126ZM220.02 225.006C220.477 225.006 220.906 224.899 221.308 224.684C221.709 224.469 222.031 224.147 222.274 223.718C222.526 223.289 222.652 222.766 222.652 222.15C222.652 221.534 222.53 221.011 222.288 220.582C222.045 220.153 221.728 219.835 221.336 219.63C220.944 219.415 220.519 219.308 220.062 219.308C219.595 219.308 219.166 219.415 218.774 219.63C218.391 219.835 218.083 220.153 217.85 220.582C217.616 221.011 217.5 221.534 217.5 222.15C217.5 222.775 217.612 223.303 217.836 223.732C218.069 224.161 218.377 224.483 218.76 224.698C219.142 224.903 219.562 225.006 220.02 225.006Z" fill="#3D94EF"/>
<line x1="341.5" y1="204" x2="341.5" y2="208" stroke="#3D94EF"/>
<line x1="409.5" y1="204" x2="409.5" y2="208" stroke="#3D94EF"/>
<line x1="479.5" y1="204" x2="479.5" y2="208" stroke="#3D94EF"/>
<line x1="272.5" y1="204" x2="272.5" y2="208" stroke="#3D94EF"/>
<line x1="204.5" y1="204" x2="204.5" y2="208" stroke="#3D94EF"/>
<line x1="67.0012" y1="203.5" x2="480.001" y2="204.5" stroke="#3D94EF"/>
<line x1="135.5" y1="204" x2="135.5" y2="208" stroke="#3D94EF"/>
<g filter="url(#filter0_d)">
<path d="M68 83C68 83 117.5 166.5 134.5 173.5C151.5 180.5 182.5 182.5 205.5 173.5C228.5 164.5 243.5 132 267.5 114C291.5 96 320.5 75.5 339 83C357.5 90.5 393.5 161.5 409 163C424.5 164.5 480.5 114 480.5 114" stroke="#2DD09E" stroke-width="2"/>
</g>
<defs>
<filter id="filter0_d" x="49.1404" y="76.4103" width="450.029" height="136.113" filterUnits="userSpaceOnUse" color-interpolation-filters="sRGB">
<feFlood flood-opacity="0" result="BackgroundImageFix"/>
<feColorMatrix in="SourceAlpha" type="matrix" values="0 0 0 0 0 0 0 0 0 0 0 0 0 0 0 0 0 0 127 0" result="hardAlpha"/>
<feOffset dy="14"/>
<feGaussianBlur stdDeviation="9"/>
<feComposite in2="hardAlpha" operator="out"/>
<feColorMatrix type="matrix" values="0 0 0 0 0.176471 0 0 0 0 0.815686 0 0 0 0 0.619608 0 0 0 1 0"/>
<feBlend mode="normal" in2="BackgroundImageFix" result="effect1_dropShadow"/>
<feBlend mode="normal" in="SourceGraphic" in2="effect1_dropShadow" result="shape"/>
</filter>
</defs>
</svg>
