<svg width="143" height="41" viewBox="0 0 143 41" fill="none" xmlns="http://www.w3.org/2000/svg">
<path d="M20.7192 40L12.5432 25.16H10.2472V40H0.671219V0.687999H16.7432C19.8419 0.687999 22.4739 1.22933 24.6392 2.312C26.8419 3.39466 28.4846 4.888 29.5672 6.792C30.6499 8.65866 31.1912 10.7493 31.1912 13.064C31.1912 15.6773 30.4446 18.0107 28.9512 20.064C27.4952 22.1173 25.3299 23.5733 22.4552 24.432L31.5272 40H20.7192ZM10.2472 18.384H16.1832C17.9379 18.384 19.2446 17.9547 20.1032 17.096C20.9992 16.2373 21.4472 15.024 21.4472 13.456C21.4472 11.9627 20.9992 10.7867 20.1032 9.928C19.2446 9.06933 17.9379 8.64 16.1832 8.64H10.2472V18.384ZM51.4265 40.448C48.3651 40.448 45.6025 39.7947 43.1385 38.488C40.7118 37.1813 38.7891 35.3147 37.3705 32.888C35.9891 30.4613 35.2985 27.624 35.2985 24.376C35.2985 21.1653 36.0078 18.3467 37.4265 15.92C38.8451 13.456 40.7865 11.5707 43.2505 10.264C45.7145 8.95733 48.4771 8.304 51.5385 8.304C54.5998 8.304 57.3625 8.95733 59.8265 10.264C62.2905 11.5707 64.2318 13.456 65.6505 15.92C67.0691 18.3467 67.7785 21.1653 67.7785 24.376C67.7785 27.5867 67.0505 30.424 65.5945 32.888C64.1758 35.3147 62.2158 37.1813 59.7145 38.488C57.2505 39.7947 54.4878 40.448 51.4265 40.448ZM51.4265 32.16C53.2558 32.16 54.8051 31.488 56.0745 30.144C57.3811 28.8 58.0345 26.8773 58.0345 24.376C58.0345 21.8747 57.3998 19.952 56.1305 18.608C54.8985 17.264 53.3678 16.592 51.5385 16.592C49.6718 16.592 48.1225 17.264 46.8905 18.608C45.6585 19.9147 45.0425 21.8373 45.0425 24.376C45.0425 26.8773 45.6398 28.8 46.8345 30.144C48.0665 31.488 49.5971 32.16 51.4265 32.16Z" fill="white"/>
<path d="M106.907 0.687999V40H97.3307V23.816H82.4347V40H72.8587V0.687999H82.4347V16.088H97.3307V0.687999H106.907ZM128.044 40.392C125.169 40.392 122.593 39.9253 120.316 38.992C118.038 38.0587 116.209 36.6773 114.828 34.848C113.484 33.0187 112.774 30.816 112.7 28.24H122.892C123.041 29.696 123.545 30.816 124.404 31.6C125.262 32.3467 126.382 32.72 127.764 32.72C129.182 32.72 130.302 32.4027 131.124 31.768C131.945 31.096 132.356 30.1813 132.356 29.024C132.356 28.0533 132.02 27.2507 131.348 26.616C130.713 25.9813 129.91 25.4587 128.94 25.048C128.006 24.6373 126.662 24.1707 124.908 23.648C122.369 22.864 120.297 22.08 118.692 21.296C117.086 20.512 115.705 19.3547 114.548 17.824C113.39 16.2933 112.812 14.296 112.812 11.832C112.812 8.17333 114.137 5.31733 116.788 3.264C119.438 1.17333 122.892 0.127999 127.148 0.127999C131.478 0.127999 134.969 1.17333 137.62 3.264C140.27 5.31733 141.689 8.192 141.876 11.888H131.516C131.441 10.6187 130.974 9.62933 130.116 8.92C129.257 8.17333 128.156 7.8 126.812 7.8C125.654 7.8 124.721 8.11733 124.012 8.752C123.302 9.34933 122.948 10.2267 122.948 11.384C122.948 12.6533 123.545 13.6427 124.74 14.352C125.934 15.0613 127.801 15.8267 130.34 16.648C132.878 17.5067 134.932 18.328 136.5 19.112C138.105 19.896 139.486 21.0347 140.644 22.528C141.801 24.0213 142.38 25.944 142.38 28.296C142.38 30.536 141.801 32.5707 140.644 34.4C139.524 36.2293 137.881 37.6853 135.716 38.768C133.55 39.8507 130.993 40.392 128.044 40.392Z" fill="#2DD09E"/>
</svg>
